<svg width="9" height="15" viewBox="0 0 9 15" fill="none" xmlns="http://www.w3.org/2000/svg">
<path d="M8.83594 7.35938C8.83594 7.55208 8.79688 7.73177 8.71875 7.89844C8.64583 8.0599 8.52865 8.21875 8.36719 8.375L2.46875 14.1562C2.22917 14.3958 1.9375 14.5156 1.59375 14.5156C1.36979 14.5156 1.16146 14.4583 0.96875 14.3438C0.776042 14.2344 0.622396 14.0859 0.507812 13.8984C0.398438 13.7109 0.34375 13.5026 0.34375 13.2734C0.34375 12.9297 0.476562 12.6224 0.742188 12.3516L5.89062 7.35156L0.742188 2.35938C0.476562 2.09896 0.34375 1.79427 0.34375 1.44531C0.34375 1.21615 0.398438 1.00781 0.507812 0.820312C0.622396 0.632812 0.776042 0.484375 0.96875 0.375C1.16146 0.260417 1.36979 0.203125 1.59375 0.203125C1.9375 0.203125 2.22917 0.320312 2.46875 0.554688L8.36719 6.33594C8.52865 6.49219 8.64583 6.65365 8.71875 6.82031C8.79167 6.98177 8.83073 7.16146 8.83594 7.35938Z" fill="white"/>
</svg>
