<svg width="28" height="23" viewBox="0 0 28 23" fill="none" xmlns="http://www.w3.org/2000/svg">
<path d="M6.72266 22.2266C5.82422 22.2266 4.98828 21.9688 4.21484 21.4531C3.44141 20.9375 2.76172 20.207 2.17578 19.2617C1.58984 18.3164 1.12891 17.1914 0.792969 15.8867C0.464844 14.5742 0.300781 13.125 0.300781 11.5391C0.300781 9.94531 0.464844 8.49609 0.792969 7.19141C1.12891 5.88672 1.58984 4.76172 2.17578 3.81641C2.76172 2.87109 3.44141 2.14453 4.21484 1.63672C4.98828 1.12109 5.82422 0.863281 6.72266 0.863281C7.61328 0.863281 8.44531 1.12109 9.21875 1.63672C10 2.14453 10.6836 2.87109 11.2695 3.81641C11.8555 4.76172 12.3125 5.88672 12.6406 7.19141C12.9688 8.49609 13.1328 9.94531 13.1328 11.5391C13.1328 13.125 12.9688 14.5742 12.6406 15.8867C12.3125 17.1914 11.8555 18.3164 11.2695 19.2617C10.6836 20.207 10 20.9375 9.21875 21.4531C8.44531 21.9688 7.61328 22.2266 6.72266 22.2266ZM6.72266 20.5742C7.37109 20.5664 7.98047 20.3438 8.55078 19.9062C9.12891 19.4688 9.63672 18.8516 10.0742 18.0547C10.5117 17.25 10.8555 16.2969 11.1055 15.1953C11.3555 14.0938 11.4805 12.875 11.4805 11.5391C11.4805 10.1953 11.3555 8.97266 11.1055 7.87109C10.8555 6.76172 10.5117 5.80859 10.0742 5.01172C9.63672 4.21484 9.12891 3.60156 8.55078 3.17188C7.98047 2.73438 7.37109 2.51562 6.72266 2.51562C6.08203 2.52344 5.47656 2.74609 4.90625 3.18359C4.33594 3.62109 3.82812 4.23828 3.38281 5.03516C2.94531 5.83203 2.60156 6.78125 2.35156 7.88281C2.10938 8.98438 1.98828 10.2031 1.98828 11.5391C1.98828 12.8828 2.11328 14.1094 2.36328 15.2188C2.61328 16.3203 2.95703 17.2734 3.39453 18.0781C3.83203 18.875 4.33594 19.4922 4.90625 19.9297C5.47656 20.3594 6.08203 20.5742 6.72266 20.5742ZM4.19141 15.6758C3.20703 15.6758 2.41406 15.3633 1.8125 14.7383C1.21875 14.1133 0.921875 13.2852 0.921875 12.2539C0.921875 11.2383 1.21875 10.418 1.8125 9.79297C2.41406 9.16797 3.20703 8.85547 4.19141 8.85547C5.16797 8.85547 5.95312 9.16797 6.54688 9.79297C7.14844 10.418 7.44922 11.2383 7.44922 12.2539C7.44922 13.2852 7.14844 14.1133 6.54688 14.7383C5.95312 15.3633 5.16797 15.6758 4.19141 15.6758ZM3.26562 11.8555C3.46875 11.8867 3.65625 11.8242 3.82812 11.668C4 11.5117 4.10938 11.3047 4.15625 11.0469C4.20312 10.7969 4.17188 10.5664 4.0625 10.3555C3.95312 10.1445 3.79297 10.0195 3.58203 9.98047C3.38672 9.94141 3.19922 10.0039 3.01953 10.168C2.83984 10.3242 2.72656 10.5273 2.67969 10.7773C2.63281 11.0352 2.66406 11.2734 2.77344 11.4922C2.89062 11.7031 3.05469 11.8242 3.26562 11.8555ZM21.2773 22.2266C20.3867 22.2266 19.5508 21.9688 18.7695 21.4531C17.9961 20.9375 17.3164 20.207 16.7305 19.2617C16.1445 18.3164 15.6875 17.1914 15.3594 15.8867C15.0312 14.5742 14.8672 13.125 14.8672 11.5391C14.8672 9.94531 15.0312 8.49609 15.3594 7.19141C15.6875 5.88672 16.1445 4.76172 16.7305 3.81641C17.3164 2.87109 17.9961 2.14453 18.7695 1.63672C19.5508 1.12109 20.3867 0.863281 21.2773 0.863281C22.1758 0.863281 23.0117 1.12109 23.7852 1.63672C24.5586 2.14453 25.2383 2.87109 25.8242 3.81641C26.4102 4.76172 26.8672 5.88672 27.1953 7.19141C27.5312 8.49609 27.6992 9.94531 27.6992 11.5391C27.6992 13.125 27.5312 14.5742 27.1953 15.8867C26.8672 17.1914 26.4102 18.3164 25.8242 19.2617C25.2383 20.207 24.5586 20.9375 23.7852 21.4531C23.0117 21.9688 22.1758 22.2266 21.2773 22.2266ZM21.2773 20.5625C21.918 20.5547 22.5234 20.3359 23.0938 19.9062C23.6719 19.4688 24.1797 18.8516 24.6172 18.0547C25.0547 17.25 25.3984 16.2969 25.6484 15.1953C25.8984 14.0938 26.0234 12.875 26.0234 11.5391C26.0234 10.2031 25.8984 8.98438 25.6484 7.88281C25.3984 6.78125 25.0547 5.83203 24.6172 5.03516C24.1797 4.23047 23.6719 3.61328 23.0938 3.18359C22.5234 2.74609 21.918 2.52734 21.2773 2.52734C20.6289 2.53516 20.0195 2.75781 19.4492 3.19531C18.8789 3.625 18.3711 4.23828 17.9258 5.03516C17.4883 5.83203 17.1445 6.78125 16.8945 7.88281C16.6445 8.98438 16.5195 10.2031 16.5195 11.5391C16.5195 12.875 16.6445 14.0977 16.8945 15.207C17.1445 16.3086 17.4883 17.2617 17.9258 18.0664C18.3711 18.8633 18.8789 19.4805 19.4492 19.918C20.0273 20.3477 20.6367 20.5625 21.2773 20.5625ZM18.7344 15.6758C17.75 15.6758 16.957 15.3633 16.3555 14.7383C15.7617 14.1133 15.4648 13.2852 15.4648 12.2539C15.4648 11.2383 15.7617 10.418 16.3555 9.79297C16.957 9.16797 17.75 8.85547 18.7344 8.85547C19.7109 8.85547 20.5 9.16797 21.1016 9.79297C21.7109 10.418 22.0156 11.2383 22.0156 12.2539C22.0156 13.2852 21.7109 14.1133 21.1016 14.7383C20.5 15.3633 19.7109 15.6758 18.7344 15.6758ZM17.8086 11.8555C18.0117 11.8867 18.1992 11.8242 18.3711 11.668C18.543 11.5117 18.6523 11.3047 18.6992 11.0469C18.7539 10.7969 18.7266 10.5664 18.6172 10.3555C18.5078 10.1367 18.3477 10.0117 18.1367 9.98047C17.9336 9.94141 17.7461 10.0039 17.5742 10.168C17.4023 10.3242 17.2891 10.5273 17.2344 10.7773C17.1875 11.0352 17.2188 11.2695 17.3281 11.4805C17.4453 11.6914 17.6055 11.8164 17.8086 11.8555Z" fill="black"/>
</svg>
