<svg width="263" height="153" viewBox="0 0 263 153" fill="none" xmlns="http://www.w3.org/2000/svg">
<path d="M170.831 151.826C169.464 152.607 168.048 152.778 166.583 152.339C165.167 151.948 164.068 151.094 163.287 149.775L117.511 70.4541C115.802 71.0889 113.653 71.9189 111.065 72.9443C108.478 73.9209 105.694 75.2637 102.716 76.9727C98.2725 79.5605 94.3662 82.4414 90.9971 85.6152C87.6279 88.7891 84.4297 92.085 81.4023 95.5029C78.375 98.8721 75.1279 102.168 71.6611 105.391C68.2432 108.613 64.2393 111.543 59.6494 114.18C57.0615 115.742 54.4004 117.061 51.666 118.135C48.9805 119.209 46.5391 119.868 44.3418 120.112C41.7539 120.356 39.3125 120.015 37.0176 119.087C34.7715 118.11 32.8184 116.182 31.1582 113.301L1.71484 62.251C0.591797 60.249 0.37207 58.3936 1.05566 56.6846C1.73926 54.9268 3.0332 53.4863 4.9375 52.3633C6.54883 51.4844 8.94141 50.5078 12.1152 49.4336C15.2891 48.3105 18.8047 46.626 22.6621 44.3799C27.1055 41.8408 31.0117 38.9844 34.3809 35.8105C37.75 32.5879 40.9482 29.292 43.9756 25.9229C47.0518 22.5537 50.2988 19.2578 53.7168 16.0352C57.1348 12.8125 61.1387 9.8584 65.7285 7.17285C68.3652 5.65918 71.0264 4.36523 73.7119 3.29102C76.4463 2.2168 78.8877 1.55762 81.0361 1.31348C83.6729 1.06934 86.1143 1.43555 88.3604 2.41211C90.6064 3.38867 92.5596 5.31738 94.2197 8.19824L172.882 144.209C173.614 145.527 173.761 146.943 173.321 148.457C172.931 149.971 172.101 151.094 170.831 151.826ZM40.8994 66.7188C44.1221 64.4238 47.0518 62.0068 49.6885 59.4678C52.374 56.9287 54.9863 54.2432 57.5254 51.4111L48.9561 36.6162C46.5635 39.2041 44.0244 41.7676 41.3389 44.3066C38.6533 46.8457 35.6016 49.2627 32.1836 51.5576L40.8994 66.7188ZM74.0049 35.957C74.8838 35.3223 75.8359 34.6875 76.8613 34.0527C77.8867 33.3691 78.79 32.7832 79.5713 32.2949C82.6475 30.5371 85.333 29.3896 87.6279 28.8525C89.9717 28.2666 91.8027 28.0957 93.1211 28.3398L83.8926 12.2998C82.1348 12.3975 80.4014 12.7393 78.6924 13.3252C77.0322 13.9111 75.5186 14.5459 74.1514 15.2295C72.833 15.9131 71.8564 16.4258 71.2217 16.7676C70.1963 17.4023 69.1709 18.0615 68.1455 18.7451C67.1689 19.3799 66.2168 20.0146 65.2891 20.6494L74.0049 35.957ZM32.1836 92.9395C34.1855 92.4512 36.3584 91.7188 38.7021 90.7422C41.0459 89.7168 43.5605 88.4229 46.2461 86.8604C47.1738 86.3232 48.0039 85.835 48.7363 85.3955C49.4688 84.9561 50.1768 84.4922 50.8604 84.0039L40.8994 66.7188C40.1182 67.1582 39.3369 67.6465 38.5557 68.1836C37.8232 68.6719 37.0664 69.1357 36.2852 69.5752C33.3555 71.2842 30.6455 72.627 28.1553 73.6035C25.7139 74.5801 23.7363 75.2637 22.2227 75.6543L32.1836 92.9395ZM67.5596 68.7695C70.3916 65.8398 73.0283 63.1299 75.4697 60.6396C77.96 58.1006 80.8408 55.6104 84.1123 53.1689L74.0049 35.957C70.7334 38.3008 67.8281 40.791 65.2891 43.4277C62.7988 46.0156 60.2109 48.6768 57.5254 51.4111L67.5596 68.7695ZM60.3818 100.483C63.5068 98.1396 66.3633 95.6006 68.9512 92.8662C71.5391 90.1318 74.1025 87.373 76.6416 84.5898L67.5596 68.7695C64.9229 71.6992 62.2861 74.3848 59.6494 76.8262C57.0127 79.2188 54.083 81.6113 50.8604 84.0039L60.3818 100.483ZM93.5605 69.5752C94.1465 69.1846 94.7324 68.8184 95.3184 68.4766C95.9531 68.0859 96.5635 67.7197 97.1494 67.3779C99.249 66.2061 101.593 64.9365 104.181 63.5693C106.817 62.2021 109.332 61.1768 111.725 60.4932L103.082 45.625C101.812 45.4297 100.006 45.625 97.6621 46.2109C95.3672 46.748 92.6572 47.8955 89.5322 49.6533C88.3604 50.3369 87.3838 50.9473 86.6025 51.4844C85.8213 51.9727 84.9912 52.5342 84.1123 53.1689L93.5605 69.5752ZM136.554 63.9355L168.78 8.19824C170.44 5.31738 172.394 3.38867 174.64 2.41211C176.886 1.43555 179.327 1.06934 181.964 1.31348C184.112 1.55762 186.529 2.2168 189.215 3.29102C191.949 4.36523 194.635 5.65918 197.271 7.17285C201.861 9.8584 205.865 12.8125 209.283 16.0352C212.701 19.2578 215.924 22.5537 218.951 25.9229C222.027 29.292 225.226 32.5879 228.546 35.8105C231.915 38.9844 235.821 41.8408 240.265 44.3799C244.171 46.626 247.711 48.3105 250.885 49.4336C254.059 50.5078 256.451 51.4844 258.062 52.3633C259.967 53.4863 261.261 54.9268 261.944 56.6846C262.628 58.3936 262.408 60.249 261.285 62.251L231.769 113.301C230.157 116.182 228.204 118.11 225.909 119.087C223.663 120.015 221.222 120.356 218.585 120.112C216.437 119.868 213.995 119.209 211.261 118.135C208.575 117.061 205.914 115.742 203.277 114.18C198.688 111.543 194.684 108.613 191.266 105.391C187.848 102.168 184.601 98.8721 181.524 95.5029C178.497 92.085 175.299 88.7891 171.93 85.6152C168.609 82.4414 164.728 79.5605 160.284 76.9727C157.306 75.2637 154.522 73.9209 151.935 72.9443C149.347 71.9189 147.198 71.0889 145.489 70.4541L142.926 74.9219L136.554 63.9355ZM169.879 28.3398C171.197 28.0957 173.004 28.2666 175.299 28.8525C177.643 29.3896 180.328 30.5371 183.355 32.2949C184.137 32.7832 185.04 33.3691 186.065 34.0527C187.091 34.6875 188.043 35.3223 188.922 35.957L197.638 20.6494C196.759 20.0146 195.807 19.3799 194.781 18.7451C193.805 18.0615 192.779 17.4023 191.705 16.7676C191.07 16.4258 190.094 15.9131 188.775 15.2295C187.457 14.5459 185.943 13.9111 184.234 13.3252C182.574 12.7393 180.865 12.3975 179.107 12.2998L169.879 28.3398ZM205.401 51.4111C207.989 54.2432 210.602 56.9287 213.238 59.4678C215.924 62.0068 218.878 64.4238 222.101 66.7188L230.816 51.5576C227.398 49.2627 224.347 46.8457 221.661 44.3066C218.976 41.7676 216.437 39.2041 214.044 36.6162L205.401 51.4111ZM178.888 53.1689C182.159 55.6104 185.016 58.1006 187.457 60.6396C189.947 63.1299 192.608 65.8398 195.44 68.7695L205.401 51.4111C202.765 48.6768 200.177 46.0156 197.638 43.4277C195.147 40.791 192.242 38.3008 188.922 35.957L178.888 53.1689ZM212.14 84.0039C212.823 84.4922 213.531 84.9561 214.264 85.3955C214.996 85.835 215.826 86.3232 216.754 86.8604C219.391 88.4229 221.881 89.7168 224.225 90.7422C226.617 91.7188 228.814 92.4512 230.816 92.9395L240.777 75.6543C239.264 75.2637 237.262 74.5801 234.771 73.6035C232.33 72.627 229.645 71.2842 226.715 69.5752C225.934 69.1357 225.152 68.6719 224.371 68.1836C223.639 67.6465 222.882 67.1582 222.101 66.7188L212.14 84.0039ZM151.275 60.4932C153.619 61.1768 156.109 62.2021 158.746 63.5693C161.383 64.9365 163.727 66.2061 165.777 67.3779C166.412 67.7197 167.022 68.0859 167.608 68.4766C168.194 68.8184 168.78 69.1846 169.366 69.5752L178.888 53.1689C177.96 52.5342 177.105 51.9727 176.324 51.4844C175.592 50.9473 174.615 50.3369 173.395 49.6533C170.318 47.8955 167.608 46.748 165.265 46.2109C162.97 45.625 161.188 45.4297 159.918 45.625L151.275 60.4932ZM186.285 84.5898C188.873 87.373 191.461 90.1318 194.049 92.8662C196.637 95.6006 199.493 98.1396 202.618 100.483L212.14 84.0039C208.868 81.6113 205.914 79.2188 203.277 76.8262C200.689 74.3848 198.077 71.6992 195.44 68.7695L186.285 84.5898ZM92.1689 151.826C90.8506 151.094 89.9961 149.971 89.6055 148.457C89.2148 146.943 89.3857 145.527 90.1182 144.209L120.001 92.4268L126.446 103.486L99.6396 149.775C98.9072 151.094 97.8086 151.948 96.3438 152.339C94.9277 152.778 93.5361 152.607 92.1689 151.826Z" fill="#101010"/>
</svg>
