<svg width="212" height="123" viewBox="0 0 212 123" fill="none" xmlns="http://www.w3.org/2000/svg">
<path d="M137.465 121.461C136.371 122.086 135.238 122.223 134.066 121.871C132.934 121.559 132.055 120.875 131.43 119.82L94.8086 56.3633C93.4414 56.8711 91.7227 57.5352 89.6523 58.3555C87.582 59.1367 85.3555 60.2109 82.9727 61.5781C79.418 63.6484 76.293 65.9531 73.5977 68.4922C70.9023 71.0312 68.3438 73.668 65.9219 76.4023C63.5 79.0977 60.9023 81.7344 58.1289 84.3125C55.3945 86.8906 52.1914 89.2344 48.5195 91.3438C46.4492 92.5938 44.3203 93.6484 42.1328 94.5078C39.9844 95.3672 38.0312 95.8945 36.2734 96.0898C34.2031 96.2852 32.25 96.0117 30.4141 95.2695C28.6172 94.4883 27.0547 92.9453 25.7266 90.6406L2.17188 49.8008C1.27344 48.1992 1.09766 46.7148 1.64453 45.3477C2.19141 43.9414 3.22656 42.7891 4.75 41.8906C6.03906 41.1875 7.95312 40.4063 10.4922 39.5469C13.0312 38.6484 15.8438 37.3008 18.9297 35.5039C22.4844 33.4727 25.6094 31.1875 28.3047 28.6484C31 26.0703 33.5586 23.4336 35.9805 20.7383C38.4414 18.043 41.0391 15.4062 43.7734 12.8281C46.5078 10.25 49.7109 7.88672 53.3828 5.73828C55.4922 4.52734 57.6211 3.49219 59.7695 2.63281C61.957 1.77344 63.9102 1.24609 65.6289 1.05078C67.7383 0.855469 69.6914 1.14844 71.4883 1.92969C73.2852 2.71094 74.8477 4.25391 76.1758 6.55859L139.105 115.367C139.691 116.422 139.809 117.555 139.457 118.766C139.145 119.977 138.48 120.875 137.465 121.461ZM33.5195 53.375C36.0977 51.5391 38.4414 49.6055 40.5508 47.5742C42.6992 45.543 44.7891 43.3945 46.8203 41.1289L39.9648 29.293C38.0508 31.3633 36.0195 33.4141 33.8711 35.4453C31.7227 37.4766 29.2812 39.4102 26.5469 41.2461L33.5195 53.375ZM60.0039 28.7656C60.707 28.2578 61.4688 27.75 62.2891 27.2422C63.1094 26.6953 63.832 26.2266 64.457 25.8359C66.918 24.4297 69.0664 23.5117 70.9023 23.082C72.7773 22.6133 74.2422 22.4766 75.2969 22.6719L67.9141 9.83984C66.5078 9.91797 65.1211 10.1914 63.7539 10.6602C62.4258 11.1289 61.2148 11.6367 60.1211 12.1836C59.0664 12.7305 58.2852 13.1406 57.7773 13.4141C56.957 13.9219 56.1367 14.4492 55.3164 14.9961C54.5352 15.5039 53.7734 16.0117 53.0312 16.5195L60.0039 28.7656ZM26.5469 74.3516C28.1484 73.9609 29.8867 73.375 31.7617 72.5938C33.6367 71.7734 35.6484 70.7383 37.7969 69.4883C38.5391 69.0586 39.2031 68.668 39.7891 68.3164C40.375 67.9648 40.9414 67.5938 41.4883 67.2031L33.5195 53.375C32.8945 53.7266 32.2695 54.1172 31.6445 54.5469C31.0586 54.9375 30.4531 55.3086 29.8281 55.6602C27.4844 57.0273 25.3164 58.1016 23.3242 58.8828C21.3711 59.6641 19.7891 60.2109 18.5781 60.5234L26.5469 74.3516ZM54.8477 55.0156C57.1133 52.6719 59.2227 50.5039 61.1758 48.5117C63.168 46.4805 65.4727 44.4883 68.0898 42.5352L60.0039 28.7656C57.3867 30.6406 55.0625 32.6328 53.0312 34.7422C51.0391 36.8125 48.9688 38.9414 46.8203 41.1289L54.8477 55.0156ZM49.1055 80.3867C51.6055 78.5117 53.8906 76.4805 55.9609 74.293C58.0312 72.1055 60.082 69.8984 62.1133 67.6719L54.8477 55.0156C52.7383 57.3594 50.6289 59.5078 48.5195 61.4609C46.4102 63.375 44.0664 65.2891 41.4883 67.2031L49.1055 80.3867ZM75.6484 55.6602C76.1172 55.3477 76.5859 55.0547 77.0547 54.7812C77.5625 54.4688 78.0508 54.1758 78.5195 53.9023C80.1992 52.9648 82.0742 51.9492 84.1445 50.8555C86.2539 49.7617 88.2656 48.9414 90.1797 48.3945L83.2656 36.5C82.25 36.3437 80.8047 36.5 78.9297 36.9688C77.0938 37.3984 74.9258 38.3164 72.4258 39.7227C71.4883 40.2695 70.707 40.7578 70.082 41.1875C69.457 41.5781 68.793 42.0273 68.0898 42.5352L75.6484 55.6602ZM110.043 51.1484L135.824 6.55859C137.152 4.25391 138.715 2.71094 140.512 1.92969C142.309 1.14844 144.262 0.855469 146.371 1.05078C148.09 1.24609 150.023 1.77344 152.172 2.63281C154.359 3.49219 156.508 4.52734 158.617 5.73828C162.289 7.88672 165.492 10.25 168.227 12.8281C170.961 15.4062 173.539 18.043 175.961 20.7383C178.422 23.4336 180.98 26.0703 183.637 28.6484C186.332 31.1875 189.457 33.4727 193.012 35.5039C196.137 37.3008 198.969 38.6484 201.508 39.5469C204.047 40.4063 205.961 41.1875 207.25 41.8906C208.773 42.7891 209.809 43.9414 210.355 45.3477C210.902 46.7148 210.727 48.1992 209.828 49.8008L186.215 90.6406C184.926 92.9453 183.363 94.4883 181.527 95.2695C179.73 96.0117 177.777 96.2852 175.668 96.0898C173.949 95.8945 171.996 95.3672 169.809 94.5078C167.66 93.6484 165.531 92.5938 163.422 91.3438C159.75 89.2344 156.547 86.8906 153.812 84.3125C151.078 81.7344 148.48 79.0977 146.02 76.4023C143.598 73.668 141.039 71.0312 138.344 68.4922C135.688 65.9531 132.582 63.6484 129.027 61.5781C126.645 60.2109 124.418 59.1367 122.348 58.3555C120.277 57.5352 118.559 56.8711 117.191 56.3633L115.141 59.9375L110.043 51.1484ZM136.703 22.6719C137.758 22.4766 139.203 22.6133 141.039 23.082C142.914 23.5117 145.062 24.4297 147.484 25.8359C148.109 26.2266 148.832 26.6953 149.652 27.2422C150.473 27.75 151.234 28.2578 151.938 28.7656L158.91 16.5195C158.207 16.0117 157.445 15.5039 156.625 14.9961C155.844 14.4492 155.023 13.9219 154.164 13.4141C153.656 13.1406 152.875 12.7305 151.82 12.1836C150.766 11.6367 149.555 11.1289 148.188 10.6602C146.859 10.1914 145.492 9.91797 144.086 9.83984L136.703 22.6719ZM165.121 41.1289C167.191 43.3945 169.281 45.543 171.391 47.5742C173.539 49.6055 175.902 51.5391 178.48 53.375L185.453 41.2461C182.719 39.4102 180.277 37.4766 178.129 35.4453C175.98 33.4141 173.949 31.3633 172.035 29.293L165.121 41.1289ZM143.91 42.5352C146.527 44.4883 148.812 46.4805 150.766 48.5117C152.758 50.5039 154.887 52.6719 157.152 55.0156L165.121 41.1289C163.012 38.9414 160.941 36.8125 158.91 34.7422C156.918 32.6328 154.594 30.6406 151.938 28.7656L143.91 42.5352ZM170.512 67.2031C171.059 67.5938 171.625 67.9648 172.211 68.3164C172.797 68.668 173.461 69.0586 174.203 69.4883C176.312 70.7383 178.305 71.7734 180.18 72.5938C182.094 73.375 183.852 73.9609 185.453 74.3516L193.422 60.5234C192.211 60.2109 190.609 59.6641 188.617 58.8828C186.664 58.1016 184.516 57.0273 182.172 55.6602C181.547 55.3086 180.922 54.9375 180.297 54.5469C179.711 54.1172 179.105 53.7266 178.48 53.375L170.512 67.2031ZM121.82 48.3945C123.695 48.9414 125.688 49.7617 127.797 50.8555C129.906 51.9492 131.781 52.9648 133.422 53.9023C133.93 54.1758 134.418 54.4688 134.887 54.7812C135.355 55.0547 135.824 55.3477 136.293 55.6602L143.91 42.5352C143.168 42.0273 142.484 41.5781 141.859 41.1875C141.273 40.7578 140.492 40.2695 139.516 39.7227C137.055 38.3164 134.887 37.3984 133.012 36.9688C131.176 36.5 129.75 36.3437 128.734 36.5L121.82 48.3945ZM149.828 67.6719C151.898 69.8984 153.969 72.1055 156.039 74.293C158.109 76.4805 160.395 78.5117 162.895 80.3867L170.512 67.2031C167.895 65.2891 165.531 63.375 163.422 61.4609C161.352 59.5078 159.262 57.3594 157.152 55.0156L149.828 67.6719ZM74.5352 121.461C73.4805 120.875 72.7969 119.977 72.4844 118.766C72.1719 117.555 72.3086 116.422 72.8945 115.367L96.8008 73.9414L101.957 82.7891L80.5117 119.82C79.9258 120.875 79.0469 121.559 77.875 121.871C76.7422 122.223 75.6289 122.086 74.5352 121.461Z" fill="#101010"/>
</svg>
