<svg width="183" height="191" viewBox="0 0 183 191" fill="none" xmlns="http://www.w3.org/2000/svg">
<path d="M0.0253906 130.952C0.0253906 121.427 1.63346 112.83 4.84961 105.161C8.1276 97.4919 12.5189 91.4307 18.0234 86.9775C23.5898 82.4626 29.8366 80.2051 36.7637 80.2051H50.0303C47.3708 83.5449 44.7113 87.627 42.0518 92.4512C39.4541 97.2135 37.2894 102.749 35.5576 109.058C33.8258 115.304 32.96 122.293 32.96 130.024C32.96 140.477 34.7845 150.125 38.4336 158.97C42.1445 167.814 48.1748 175.298 56.5244 181.421H40.1963C32.527 181.421 25.6618 179.102 19.6006 174.463C13.5394 169.886 8.74609 163.794 5.2207 156.187C1.75716 148.517 0.0253906 140.106 0.0253906 130.952ZM45.7627 130.21C45.7627 122.974 46.3812 116.479 47.6182 110.728C48.917 104.976 50.8652 99.5638 53.4629 94.4922C56.1224 89.4206 59.4313 84.2562 63.3896 78.999C70.3786 69.7217 78.1097 59.5785 86.583 48.5693C95.0563 37.4984 102.726 25.2832 109.591 11.9238C111.384 8.46029 113.24 5.67708 115.157 3.57422C117.075 1.47135 119.703 0.419922 123.043 0.419922C126.692 0.419922 129.723 1.62598 132.135 4.03809C134.609 6.38835 135.846 9.72819 135.846 14.0576C135.846 18.1396 135.042 22.5309 133.434 27.2314C131.887 31.932 130.094 36.6325 128.053 41.333C126.012 46.0335 124.218 50.4867 122.672 54.6924C121.126 58.8363 120.353 62.4544 120.353 65.5469C120.353 69.0104 121.62 71.7318 124.156 73.7109C126.692 75.6901 130.001 76.6797 134.083 76.6797H166.739C169.832 76.6797 172.584 77.4219 174.996 78.9062C177.408 80.3288 179.326 82.277 180.748 84.751C182.171 87.2249 182.882 89.9463 182.882 92.915C182.882 95.5127 182.449 97.832 181.583 99.873C180.717 101.914 179.573 103.553 178.15 104.79C176.728 106.089 176.635 107.295 177.872 108.408C179.047 109.521 179.975 111.13 180.655 113.232C181.336 115.273 181.676 117.376 181.676 119.541C181.676 122.572 180.995 125.293 179.635 127.705C178.336 130.117 176.666 131.942 174.625 133.179C172.955 134.106 172.677 135.312 173.79 136.797C175.955 139.518 177.037 142.982 177.037 147.188C177.037 150.837 175.986 153.991 173.883 156.65C171.842 159.248 169.399 161.134 166.554 162.31C165.379 162.743 165.193 163.608 165.997 164.907C166.554 165.897 167.018 167.041 167.389 168.34C167.822 169.701 168.038 171.278 168.038 173.071C168.038 177.463 166.554 180.802 163.585 183.091C160.678 185.441 157.431 187.08 153.844 188.008C151.37 188.688 147.937 189.214 143.546 189.585C139.155 190.018 133.959 190.234 127.96 190.234H115.343C104.581 190.234 94.9017 188.719 86.3047 185.688C77.7077 182.658 70.3786 178.421 64.3174 172.979C58.318 167.536 53.7103 161.165 50.4941 153.867C47.3398 146.569 45.7627 138.683 45.7627 130.21Z" fill="#101010"/>
</svg>
