<svg width="21" height="22" viewBox="0 0 21 22" fill="none" xmlns="http://www.w3.org/2000/svg">
<path d="M0.548828 14.4355C0.548828 13.3613 0.73763 12.3815 1.11523 11.4961C1.49284 10.6107 1.9974 9.9043 2.62891 9.37695C3.26693 8.84961 3.97331 8.58594 4.74805 8.58594H6.53516C7.09505 7.90234 7.60286 7.26432 8.05859 6.67188C8.51432 6.07292 8.93099 5.5 9.30859 4.95312C9.69271 4.39974 10.0443 3.85612 10.3633 3.32227C10.6823 2.78841 10.985 2.24805 11.2715 1.70117C11.5775 1.11523 11.8997 0.695312 12.2383 0.441406C12.5768 0.18099 12.9772 0.0507812 13.4395 0.0507812C13.8626 0.0507812 14.237 0.148438 14.5625 0.34375C14.888 0.532552 15.1452 0.796224 15.334 1.13477C15.5228 1.47331 15.6172 1.86393 15.6172 2.30664C15.6172 2.7819 15.5358 3.27669 15.373 3.79102C15.2103 4.30534 15.0215 4.80664 14.8066 5.29492C14.5983 5.7832 14.4128 6.22917 14.25 6.63281C14.0938 7.03646 14.0156 7.36523 14.0156 7.61914C14.0156 7.71029 14.0482 7.7819 14.1133 7.83398C14.1784 7.87956 14.263 7.90234 14.3672 7.90234H17.9316C18.4004 7.90234 18.8236 8.01628 19.2012 8.24414C19.5788 8.46549 19.8783 8.76823 20.0996 9.15234C20.3275 9.52995 20.4414 9.95312 20.4414 10.4219C20.4414 11.0013 20.3014 11.4961 20.0215 11.9062C20.1126 12.0755 20.1842 12.2708 20.2363 12.4922C20.2884 12.7135 20.3145 12.9349 20.3145 13.1562C20.3145 13.5013 20.2559 13.8301 20.1387 14.1426C20.0215 14.4486 19.8522 14.7155 19.6309 14.9434C19.7741 15.2559 19.8457 15.6107 19.8457 16.0078C19.8457 16.8216 19.5104 17.4824 18.8398 17.9902C18.8724 18.1009 18.8952 18.2116 18.9082 18.3223C18.9277 18.4329 18.9375 18.5469 18.9375 18.6641C18.9375 19.237 18.7454 19.7383 18.3613 20.168C17.9837 20.5977 17.4661 20.8906 16.8086 21.0469C16.4701 21.1315 16.0534 21.1901 15.5586 21.2227C15.0703 21.2617 14.5332 21.2812 13.9473 21.2812H12.6387C11.7988 21.2812 11.0046 21.1901 10.2559 21.0078C9.51367 20.8255 8.83333 20.5716 8.21484 20.2461H5.09961C4.47461 20.2461 3.88867 20.0931 3.3418 19.7871C2.79492 19.4811 2.3099 19.0579 1.88672 18.5176C1.47005 17.9837 1.14128 17.3685 0.900391 16.6719C0.666016 15.9688 0.548828 15.2233 0.548828 14.4355ZM6.04688 14.3867C6.04688 15.4414 6.32357 16.3822 6.87695 17.209C7.43685 18.0293 8.2181 18.6738 9.2207 19.1426C10.2298 19.6113 11.4049 19.8457 12.7461 19.8457H13.957C14.4909 19.8457 14.9727 19.8294 15.4023 19.7969C15.8385 19.7708 16.1934 19.722 16.4668 19.6504C16.8118 19.5592 17.0658 19.429 17.2285 19.2598C17.3978 19.0905 17.4824 18.8919 17.4824 18.6641C17.4824 18.5404 17.4661 18.4297 17.4336 18.332C17.4076 18.2344 17.3359 18.0391 17.2188 17.7461C17.1732 17.6419 17.1634 17.5475 17.1895 17.4629C17.222 17.3783 17.2904 17.3034 17.3945 17.2383C18.0651 16.8932 18.4004 16.4831 18.4004 16.0078C18.4004 15.8385 18.3711 15.6888 18.3125 15.5586C18.2539 15.4219 18.1628 15.2428 18.0391 15.0215C17.974 14.8717 17.9609 14.7383 18 14.6211C18.0391 14.4974 18.1172 14.39 18.2344 14.2988C18.4492 14.1361 18.6087 13.9603 18.7129 13.7715C18.8171 13.5827 18.8691 13.3776 18.8691 13.1562C18.8691 12.9674 18.8333 12.7949 18.7617 12.6387C18.6966 12.4759 18.5892 12.2839 18.4395 12.0625C18.3678 11.9714 18.3353 11.8802 18.3418 11.7891C18.3483 11.6914 18.3971 11.6035 18.4883 11.5254C18.6706 11.3431 18.8008 11.1706 18.8789 11.0078C18.957 10.8451 18.9961 10.6497 18.9961 10.4219C18.9961 10.1159 18.8919 9.86198 18.6836 9.66016C18.4818 9.45182 18.2311 9.34766 17.9316 9.34766H14.5723C14.0124 9.34766 13.5371 9.19466 13.1465 8.88867C12.7624 8.57617 12.5703 8.15299 12.5703 7.61914C12.5703 7.24805 12.6484 6.83789 12.8047 6.38867C12.9674 5.93294 13.153 5.46419 13.3613 4.98242C13.5762 4.50065 13.765 4.02865 13.9277 3.56641C14.0905 3.10417 14.1719 2.68424 14.1719 2.30664C14.1719 2.04622 14.1068 1.84766 13.9766 1.71094C13.8529 1.56771 13.6934 1.49609 13.498 1.49609C13.3223 1.49609 13.166 1.55143 13.0293 1.66211C12.8991 1.77279 12.7461 2.00716 12.5703 2.36523C12.1016 3.30273 11.584 4.18164 11.0176 5.00195C10.4577 5.82227 9.89453 6.59375 9.32812 7.31641C8.76823 8.03255 8.25065 8.70638 7.77539 9.33789C7.35221 9.91081 7.01367 10.4512 6.75977 10.959C6.50586 11.4668 6.32357 11.9941 6.21289 12.541C6.10221 13.0879 6.04688 13.7031 6.04688 14.3867ZM1.99414 14.4355C1.99414 15.2233 2.13737 15.9492 2.42383 16.6133C2.7168 17.2708 3.09766 17.7982 3.56641 18.1953C4.03516 18.5924 4.54622 18.791 5.09961 18.791C5.30794 18.791 5.51628 18.791 5.72461 18.791C5.93294 18.791 6.14128 18.791 6.34961 18.791C5.78971 18.2051 5.35677 17.5378 5.05078 16.7891C4.7513 16.0404 4.60156 15.2298 4.60156 14.3574C4.60156 13.5306 4.67969 12.7689 4.83594 12.0723C4.9987 11.3691 5.2526 10.6888 5.59766 10.0312C5.45443 10.0312 5.3112 10.0312 5.16797 10.0312C5.02474 10.0312 4.88477 10.0312 4.74805 10.0312C4.26628 10.0312 3.8138 10.2298 3.39062 10.627C2.97396 11.0241 2.63542 11.5547 2.375 12.2188C2.12109 12.8828 1.99414 13.6217 1.99414 14.4355Z" fill="#101010"/>
</svg>
