<svg width="80" height="80" viewBox="0 0 80 80" fill="none" xmlns="http://www.w3.org/2000/svg">
<rect x="1" y="1" width="78" height="78" rx="39" fill="white"/>
<g clip-path="url(#clip0_916_9778)">
<path fill-rule="evenodd" clip-rule="evenodd" d="M20.5922 80.8201C24.2575 80.9232 27.7199 81.037 31.3781 80.8201C37.2321 80.4562 54.4116 81.1122 58.1878 80.8201C58.4727 80.7981 59.4528 81.1122 59.4732 80.8201C59.6392 78.7865 59.7468 58.2118 59.2536 56.7961C58.7605 55.3804 56.3261 48.575 53.2243 45.4017C52.3594 44.5443 51.0432 44.2123 50.3161 43.2215C49.6893 42.1412 49.738 41.5071 49.1189 40.9387C48.8502 40.6921 48.2167 40.5921 47.7459 40.2497C47.2725 39.777 47.7207 38.7363 47.5264 38.078C47.1259 36.4343 45.6506 35.3797 44.038 35.1312C41.7968 34.5923 39.4307 35.1018 38.3571 36.871C37.9575 37.5295 38.1702 38.33 37.6787 39.3852C37.7138 40.1827 36.7874 40.3753 36.2336 40.6913L35.1339 41.8082C31.7459 43.7239 27.7602 44.7583 24.7916 47.332C22.2677 49.905 19.7574 52.8789 18.6375 56.3599C18.4057 57.3085 18.33 58.2889 18.234 59.2581C17.9597 62.0906 17.1959 64.8398 16.5387 67.5989C15.7892 71.0751 15.0906 74.7652 16.1007 78.2744C16.3919 79.0171 19.9292 80.7854 20.5922 80.8201Z" fill="white"/>
<path fill-rule="evenodd" clip-rule="evenodd" d="M38.1629 37.1542C38.1922 37.0579 38.3186 37.085 38.3282 37.1765C38.4234 38.0836 38.3036 39.0316 38.1887 39.9327C38.1336 40.3676 38.1019 40.82 38.0181 41.2488C38.0073 41.2946 37.9971 41.3409 37.9875 41.3866C38.0151 41.4359 38.0965 41.4912 38.1354 41.5291L38.3044 41.6942L38.643 42.0237C39.3057 42.6685 39.9683 43.3139 40.6309 43.9588L41.6036 44.9062C41.9371 45.231 42.316 45.542 42.6087 45.9042C42.7673 46.1008 42.8032 46.342 42.647 46.5526C42.5697 46.6566 42.4309 46.7324 42.2902 46.7481C42.3453 46.8251 42.3878 46.9123 42.4147 47.0092C42.4698 47.2065 42.2711 47.4488 42.0598 47.3664C41.8198 47.2738 41.6216 47.1078 41.3773 47.0284C41.1307 46.9478 40.8626 46.9322 40.607 46.9754C40.4896 46.9953 40.3747 47.0248 40.2628 47.0621C41.4606 47.6161 42.7565 47.9343 44.0782 47.98C44.3476 47.9891 44.6164 47.9854 44.8839 47.9674C45.3341 47.9379 45.7812 47.8694 46.2206 47.7587C46.566 47.6715 46.9078 47.5619 47.2394 47.4296C47.4022 47.3646 47.5632 47.2931 47.7189 47.2119L47.7325 47.2038C47.7677 47.1817 48.4181 46.811 48.4294 46.7553C48.4408 46.6996 48.4408 46.6802 48.4196 46.6317C48.3984 46.5833 48.3397 46.5498 48.3397 46.5498C48.1388 46.4635 47.9306 46.3832 47.7111 46.3817C47.2058 46.3787 46.6545 46.7541 46.2368 47.0098C45.7777 47.2907 45.3556 47.6191 44.9138 47.9235C44.9037 47.9307 44.8923 47.9337 44.8815 47.9337C44.8349 47.9337 44.7917 47.8759 44.8216 47.8308C45.1383 47.3624 45.5656 46.9723 46.0126 46.6317L46.1927 46.4961C46.6022 46.1892 47.081 45.8494 47.5788 45.7754C48.1887 45.6851 48.8257 46.0672 49.3698 46.2909L50.3335 46.6873C50.5053 46.7577 50.6921 46.8178 50.865 46.8978L50.4612 45.6281C50.2594 44.9931 50.0581 44.358 49.8589 43.7224L49.8202 43.5979C49.6217 42.9527 49.4394 42.2816 49.1088 41.6922C49.0297 41.5509 48.9394 41.4179 48.8502 41.2837C48.7574 41.1448 48.7227 40.9914 48.606 40.8674C48.3749 40.6214 48.0439 40.4771 47.7278 40.3827C47.6506 40.3598 47.6734 40.2576 47.7458 40.2497C48.0702 40.2154 48.3794 40.2914 48.6725 40.4289L48.7943 40.4873C49.0715 40.619 49.3417 40.7416 49.5475 40.9781C50.0168 41.5183 50.2605 42.1985 50.4844 42.8697L50.5442 43.0499C50.628 43.0222 51.1972 43.1967 51.2685 43.2381C53.4025 44.1447 55.0462 45.8325 56.2482 47.8104C57.5651 49.9777 58.2822 52.4542 58.8742 54.9049C59.0569 55.6612 59.2316 56.4199 59.3994 57.1802C58.6516 57.4694 57.8568 57.6207 57.1568 58.028C56.8901 58.1832 57.131 58.5992 57.3984 58.4436C58.0541 58.0621 58.801 57.9212 59.5028 57.6532C59.8833 59.4135 60.2219 61.1834 60.5053 62.9607C61.3764 68.4154 61.9264 73.9591 61.8917 79.4884C61.8911 79.6106 61.8552 79.7471 61.7887 79.8644C61.8277 79.8452 61.8582 79.8223 61.8756 79.7947C62.0964 79.4463 62.6501 79.7694 62.428 80.1195L62.3956 80.1702C62.2289 80.4284 62.0734 80.6257 61.7804 80.7715C61.4852 80.9183 61.1656 80.943 60.84 80.9514C59.7332 80.9807 58.6256 80.9998 57.5177 81.0135C57.3658 79.8226 57.304 78.6203 57.0947 77.4363C57.0409 77.1319 56.5793 77.2609 56.6329 77.5643C56.8351 78.7076 56.8998 79.8682 57.0409 81.0193C54.6722 81.0449 52.3023 81.0452 49.9355 81.0519C46.7279 81.0613 43.5208 81.0547 40.3134 81.0528L38.9387 81.0524C35.2335 81.0524 31.5281 81.0404 27.8229 81.0157L26.9417 81.0095C26.5912 78.9329 26.3526 76.8386 26.3481 74.7284C26.3475 74.4188 25.8686 74.4182 25.8693 74.7284C25.8737 76.8363 26.1097 78.9308 26.457 81.0068C25.5797 81.0029 24.7028 81.0061 23.8254 81.0374L23.3789 81.0534C22.4854 81.0841 21.5902 81.103 20.6984 81.0314C19.7083 80.9514 18.7069 80.7686 17.8192 80.3C17.4194 80.0885 17.0674 79.8182 16.7666 79.5005C17.0724 79.3217 17.3826 79.1502 17.6788 78.9554C17.9357 78.7865 17.696 78.3697 17.4371 78.5399C17.1179 78.7499 16.7823 78.9327 16.4536 79.1268C16.2156 78.8077 16.0203 78.4534 15.872 78.0713C15.6379 77.4679 15.5475 76.8188 15.4691 76.18C15.3764 75.4275 15.338 74.6689 15.338 73.911C15.338 72.317 15.505 70.7277 15.7379 69.1529C15.9607 67.6442 16.2551 66.1476 16.5663 64.6558L16.6088 64.4524C16.9159 62.9859 17.2086 61.5151 17.5606 60.0588C17.886 58.7122 18.2621 57.3718 18.7104 56.0574C19.1093 56.3053 19.5268 56.5222 19.9196 56.7804C20.1782 56.9505 20.4184 56.534 20.1613 56.3649C19.7423 56.0894 19.2954 55.8604 18.8725 55.5911C19.3737 54.1836 19.962 52.809 20.6673 51.4924C22.08 48.8559 23.9835 46.4972 26.4216 44.7564C27.6421 43.8854 28.9811 43.1726 30.3873 42.654C31.8209 42.1247 33.3065 41.8347 34.8258 41.7157C34.8691 41.7122 34.8935 41.7526 34.8917 41.7899L34.8911 41.7968L34.9509 41.8065C34.9731 41.6555 35.0186 41.5093 35.1054 41.3752C35.3029 41.0696 35.6776 40.8735 35.9769 40.6858L36.0478 40.6415C36.4039 40.4197 36.7797 40.2012 37.1939 40.1234C37.2082 40.1209 37.2171 40.136 37.2076 40.1475C36.9344 40.4621 36.5852 40.7026 36.2651 40.9687L36.1916 41.0304C35.9263 41.2498 35.5563 41.4987 35.5465 41.8654C35.5352 42.2974 35.6231 42.7466 35.6549 43.1774C35.6866 43.6068 35.7087 44.0357 35.7201 44.4664C35.7614 46.0094 35.7117 47.553 35.5758 49.0899L36.1767 48.6856C37.112 48.0565 38.0503 47.4291 39.0081 46.8401C39.5876 46.4834 40.2389 46.1784 40.9332 46.1923C41.1277 46.1958 41.3474 46.2242 41.5582 46.2843C41.3313 46.0684 41.114 45.8386 40.892 45.6214C40.5261 45.2635 40.1604 44.9056 39.7947 44.5483L38.7402 43.516L37.6852 42.4838C37.3585 42.1632 36.9753 41.8679 37.01 41.3626C37.0382 40.9595 37.2423 40.5583 37.3817 40.1697C37.4015 40.1138 37.4195 40.0584 37.4362 40.0037C37.7176 39.0641 37.8774 38.0902 38.1629 37.1542ZM51.7922 77.4688C51.574 77.2494 51.2354 77.5896 51.4536 77.809L51.569 77.9245C51.7617 78.1177 51.9528 78.3169 52.0862 78.5558L52.1058 78.5919C52.2495 78.8659 52.663 78.623 52.5192 78.349C52.3415 78.0103 52.0588 77.7368 51.7922 77.4688ZM42.4463 77.4068C41.7519 77.2736 41.0826 77.2736 40.3882 77.4068C40.0858 77.4649 40.2139 77.9288 40.5155 77.8709C41.1228 77.7543 41.7116 77.7543 42.319 77.8709C42.6202 77.9287 42.7492 77.465 42.4463 77.4068ZM33.0681 72.5561C32.7693 72.48 32.6418 72.944 32.9409 73.0201L33.0881 73.0572C33.5886 73.1815 34.0653 73.2741 34.5852 73.1587C34.8821 73.0928 34.762 72.64 34.4697 72.6923L34.4579 72.6946C33.9768 72.8014 33.5336 72.6746 33.0681 72.5561ZM49.7236 69.4303C49.5025 69.2143 49.1635 69.5542 49.385 69.7705C49.6613 70.0406 49.987 70.2459 50.3817 70.2568C50.6854 70.2654 50.6897 69.7985 50.3953 69.7763L50.3817 69.7756C50.1172 69.7682 49.9065 69.609 49.7236 69.4303ZM21.5405 68.1451C21.8162 68.0065 21.5739 67.5914 21.2988 67.7296L19.6438 68.5611C19.3681 68.6996 19.6104 69.1149 19.8855 68.9766L21.5405 68.1451ZM54.2433 68.2511C53.935 68.2424 53.9353 68.7236 54.2433 68.7323C54.533 68.7405 54.8298 68.8507 55.0879 68.9766C55.3639 69.1114 55.607 68.6965 55.3296 68.5611C54.9922 68.3965 54.6219 68.2617 54.2433 68.2511ZM38.7799 65.9277C39.0333 65.7546 38.794 65.3374 38.5382 65.5121C38.1891 65.7504 37.8728 66.0321 37.5292 66.2777L37.4348 66.3437C37.1814 66.5167 37.4207 66.9338 37.6765 66.7592C38.0573 66.4992 38.3991 66.1876 38.7799 65.9277ZM56.5879 62.4301C56.2797 62.43 56.2792 62.9112 56.5879 62.9113L56.6463 62.9111C56.9006 62.9097 57.1687 62.9027 57.4053 63.0048L57.4324 63.0171C57.7097 63.1483 57.953 62.7336 57.6741 62.6016C57.3274 62.4375 56.9648 62.4303 56.5879 62.4301ZM29.9937 62.0863L30.0339 62.0712C30.3219 61.9673 30.1977 61.5021 29.9066 61.6072C29.468 61.7656 29.1267 62.0647 28.7462 62.3244C28.4926 62.4974 28.732 62.9145 28.9879 62.74C29.3157 62.5162 29.6208 62.2329 29.9937 62.0863ZM47.9556 60.8344L48.0201 60.7997C48.2943 60.6579 48.0523 60.2426 47.7785 60.3842C47.5611 60.4965 47.3666 60.646 47.1534 60.7652L47.0888 60.7999C46.8147 60.9417 47.0567 61.357 47.3305 61.2155C47.5479 61.103 47.7424 60.9535 47.9556 60.8344ZM40.6706 56.1732L40.6213 56.1254C40.4009 55.9085 40.062 56.2486 40.2826 56.4657C40.8337 57.0077 41.4852 57.4192 42.1424 57.817L42.2619 57.8892C42.5268 58.0489 42.7678 57.633 42.5036 57.4737L42.3282 57.3677C41.7439 57.0136 41.1664 56.648 40.6706 56.1732ZM27.4188 55.7239C27.6045 55.4816 27.2007 55.2445 27.012 55.4727L27.0053 55.481C26.812 55.7332 26.5827 55.9615 26.343 56.1698L26.2979 56.2087C26.1552 56.3307 25.8955 56.592 25.695 56.6092C25.3902 56.6353 25.3874 57.1167 25.695 57.0905C26.0052 57.0639 26.2721 56.8446 26.5064 56.6566C26.8475 56.3831 27.1526 56.0712 27.4188 55.7239ZM52.8956 53.9709C53.1181 53.7608 52.7894 53.4265 52.5649 53.6235L52.557 53.6307C52.1412 54.0232 51.543 54.1285 51.0077 54.2617C50.7087 54.3361 50.8354 54.8003 51.135 54.7257L51.3789 54.6652C51.9259 54.528 52.4748 54.3683 52.8956 53.9709ZM43.4117 50.9355C43.1129 50.8592 42.9854 51.3232 43.2844 51.3995C43.7923 51.5292 44.2734 51.6969 44.7442 51.9297C45.0198 52.0658 45.2627 51.651 44.9859 51.5141C44.4794 51.2636 43.9586 51.0752 43.4117 50.9355ZM48.3037 40.7911C48.2965 40.7694 48.3193 40.7448 48.3414 40.7525C48.8788 40.9539 48.5931 41.6612 48.4261 42.0846L48.3958 42.162C48.1343 42.8405 47.7686 43.501 47.3699 44.1085C46.9527 44.7444 46.4894 45.3531 45.9878 45.9246C45.7701 46.1727 45.5444 46.4137 45.3111 46.6475L45.2233 46.7348C44.9875 46.9676 44.6834 47.3767 44.3176 47.3316C43.9238 47.284 43.7041 46.8612 43.9914 46.54C44.1944 46.3126 44.4757 46.1315 44.7025 45.9246C44.9277 45.72 45.1455 45.5089 45.358 45.2918C45.7926 44.846 46.2045 44.375 46.581 43.8788C46.9451 43.3988 47.2936 42.9057 47.6105 42.3929L47.6734 42.2901C47.9146 41.8913 48.4713 41.3048 48.3037 40.7911ZM29.2637 45.8319C29.0086 45.6566 28.7688 46.0734 29.022 46.2473C29.4876 46.5671 29.8972 46.9545 30.4011 47.2175C30.671 47.3584 30.9109 46.9547 30.6524 46.8072L30.6428 46.802C30.1393 46.5391 29.729 46.1514 29.2637 45.8319Z" fill="#101010"/>
<path fill-rule="evenodd" clip-rule="evenodd" d="M56.1585 40.7005C55.4755 37.4787 55.0374 34.2154 54.6453 30.9478C54.4556 29.3652 54.3041 27.7784 54.1287 26.1945C53.9647 24.7189 53.7737 23.2385 53.3906 21.8021C53.0345 20.4673 52.5137 19.1457 51.7463 17.9932C51.0268 16.9128 50.1223 15.987 49.0838 15.214C47.0318 13.6868 44.4076 12.8741 41.8552 13.1436C41.4697 13.1845 41.0878 13.25 40.7101 13.3379C40.8304 13.3024 40.9519 13.2692 41.0746 13.2404C41.1141 13.2308 41.0966 13.1774 41.0578 13.1809C30.6738 14.129 28.2312 32.2766 28.0091 35.9357C27.9918 36.2203 27.9781 36.5042 27.9679 36.7887C27.89 37.4234 27.832 38.0598 27.8044 38.698C27.7734 39.4343 27.7883 40.1754 27.8559 40.9092C27.9253 41.6617 28.0044 42.4329 28.3169 43.1247C28.5084 43.5506 37.4393 42.9672 37.5315 42.4642C37.7183 41.4488 37.8141 40.401 37.7555 39.3682C37.7279 38.873 37.677 38.3816 37.5716 37.8968C37.5429 37.7644 37.5124 37.516 37.4352 37.3193C38.2498 35.7638 39.1459 34.2526 40.0684 32.759C41.9881 29.6491 44.0292 26.5969 45.5982 23.2848C46.3848 21.6252 47.1599 19.8628 47.531 18.0443L47.5909 18.0563C47.5837 18.078 47.5885 18.105 47.61 18.1201C49.3154 19.3045 50.4552 21.0995 51.1938 23.0214C52.054 25.2591 52.4712 27.6755 52.4113 30.0732C52.3162 33.8833 50.879 38.5921 46.8127 39.7964C45.8849 40.0713 44.8829 40.1489 43.9323 39.948C43.4839 39.8529 43.0446 39.7067 42.6399 39.4902C42.191 39.2502 41.8222 38.9103 41.4015 38.6307C41.0165 38.375 40.5622 38.8736 40.7837 39.252C41.2727 40.0881 42.3251 40.5995 43.2289 40.8509C44.1933 41.1198 45.2103 41.1325 46.1926 40.9616C46.2674 40.9489 46.3416 40.9345 46.4152 40.9189C46.432 41.1667 46.5379 41.4134 46.7103 41.6137C46.7876 41.7039 46.8827 41.782 46.9893 41.8476C47.0031 42.0895 47.1581 42.3325 47.4101 42.3855C48.7563 42.6669 54.3472 41.9288 55.6916 41.5264C56.0525 41.4182 56.2351 41.0627 56.1585 40.7005Z" fill="#101010"/>
<path fill-rule="evenodd" clip-rule="evenodd" d="M52.647 29.0822C52.5462 24.3553 51.3742 19.1223 47.3568 16.2012C47.1009 16.0149 46.7168 16.1051 46.5047 16.3179C46.3306 16.3521 46.1707 16.4581 46.0643 16.653C43.6887 21.0102 41.1878 25.2985 38.5629 29.5088C36.8775 32.2311 34.8302 34.9568 34.5601 38.2566C34.5133 38.3189 34.0794 38.8112 34.3323 38.7754C34.4445 38.7164 34.5588 38.6679 34.679 38.632C34.9999 39.1023 35.7452 39.0283 35.9224 38.4976C36.5367 38.5153 37.1446 38.6731 37.7299 38.8561C39.1654 39.3076 40.6243 39.7539 42.0893 40.099C46.9155 41.3862 52.1013 39.7485 52.4869 34.0942C53.005 33.3607 52.7247 30.0918 52.647 29.0822Z" fill="white"/>
<path fill-rule="evenodd" clip-rule="evenodd" d="M47.2342 37.4602L47.3619 37.4261C47.8191 37.3009 48.2937 37.1022 48.7304 37.3745C48.888 37.4729 48.9118 37.682 48.7872 37.8174C48.4334 38.2014 47.9113 38.1269 47.433 38.1308L47.4095 38.131C46.9282 38.1377 46.4506 38.1136 45.9743 38.0442C45.9115 38.0351 45.8991 37.9302 45.9561 37.9051C46.3708 37.7224 46.7974 37.5783 47.2342 37.4602ZM48.01 30.439C48.462 30.7151 49.1507 31.3589 48.6645 32.0434C48.0921 32.647 47.268 31.9549 46.8619 31.642C46.4853 31.3994 46.0622 32.0233 46.4116 32.3065C49.3461 34.4898 50.537 30.5112 48.2386 30.1143C47.9855 30.0706 47.8915 30.3535 48.01 30.439ZM51.1527 26.808C51.8819 26.7855 51.8825 27.9497 51.1527 27.9465C50.9348 27.9456 50.7169 27.9455 50.499 27.945C50.6256 28.4089 50.5533 28.962 50.3246 29.3516C50.1738 29.6088 49.8128 29.6555 49.6019 29.4452C49.2378 29.0821 49.1661 28.5511 49.2947 28.0697L49.2683 28.0067C49.2596 27.9861 49.2535 27.9652 49.2484 27.9442C48.5442 27.9448 47.8399 27.9465 47.1356 27.9476L46.0793 27.9488C45.3934 27.949 44.7072 27.9546 44.0213 27.9482C44.0297 27.961 44.0382 27.9737 44.0451 27.9883C44.0879 28.0789 44.106 28.1932 44.1195 28.291C44.1425 28.459 44.1397 28.6399 44.1134 28.8072C44.0941 28.9294 44.0588 29.075 43.9911 29.1902L43.9907 29.1926C43.9588 29.3292 43.9185 29.4601 43.8133 29.5587C43.7817 29.5882 43.7509 29.6092 43.7184 29.6242C43.6569 29.6888 43.5777 29.7316 43.4738 29.7329C43.4186 29.7336 43.3581 29.7174 43.2994 29.6944C43.2092 29.702 43.116 29.661 43.0363 29.6246C42.9723 29.5955 42.9135 29.5567 42.8662 29.5062C42.844 29.5009 42.8216 29.4922 42.7992 29.4783C42.662 29.3935 42.6096 29.2235 42.6025 29.07C42.602 29.0606 42.6023 29.0508 42.602 29.0414C42.5969 29.0206 42.5924 28.9996 42.5889 28.9786C42.5433 28.7058 42.5987 28.3986 42.6568 28.1335C42.6714 28.0671 42.6834 27.9901 42.7013 27.9156C42.5644 27.9102 42.4277 27.9049 42.2908 27.8993C41.9479 27.8852 41.5294 27.9313 41.2122 27.7857C41.1891 27.7752 41.1953 27.7442 41.2122 27.7322C41.5051 27.5218 41.9601 27.4877 42.3128 27.4185L42.3427 27.4124C42.7633 27.3258 43.1836 27.2528 43.6084 27.1906C44.4262 27.0708 45.2544 27.0063 46.0793 26.9598C47.7681 26.8648 49.4621 26.8599 51.1527 26.808Z" fill="#101010"/>
<path fill-rule="evenodd" clip-rule="evenodd" d="M51.302 25.9654C52.707 25.9654 53.5088 26.2691 53.8026 26.2927L53.8115 26.2933C53.9337 26.3012 54.0433 26.3115 54.1583 26.3562C54.5813 26.5199 54.6502 26.9656 54.4033 27.2465C54.386 27.8279 54.4621 28.5071 54.3316 29.0902C54.1705 31.5488 53.02 31.9637 52.366 32.1151C52.0377 32.1912 51.6485 32.2214 51.2997 32.1411C50.7047 32.1188 50.1165 31.9317 49.6133 31.6057C48.9124 31.1515 48.3918 30.4532 48.2228 29.6246C48.1428 29.2296 48.1053 28.8184 48.1489 28.4169L48.1554 28.3616C47.9276 28.2521 47.6635 28.2314 47.3914 28.2217C47.2614 28.2171 47.1333 28.2129 47.0088 28.2185C46.8871 28.2321 46.7669 28.2503 46.6463 28.2751C46.5146 28.315 46.3902 28.3809 46.2754 28.4853L46.2675 28.6376C46.2459 29.0181 46.1962 29.3998 46.1195 29.7731C46.0063 30.324 45.8242 30.8501 45.4366 31.2409C45.3054 31.4378 45.1431 31.6135 44.946 31.7657C44.23 32.3197 43.2573 32.5231 42.3646 32.4465C40.5523 32.2911 39.5047 30.8453 39.2633 30.2273L39.2489 30.1899C39.0745 29.7304 38.9355 29.1344 38.3844 29.0356L38.2672 29.0145C38.0157 28.967 37.7837 28.901 37.6362 28.6544C37.5716 28.5468 37.5383 28.4264 37.5302 28.3037C37.4442 28.3103 37.3583 28.3167 37.2727 28.3228C36.5898 28.468 32.4937 28.591 32.1668 28.591C32.1668 28.591 31.5383 28.8568 31.273 28.6509C31.0891 28.5077 31.0286 28.3168 31.1298 28.1006C31.2826 27.7752 31.9873 27.5795 32.3003 27.5176C32.3003 27.5176 37.3503 27.5597 37.7137 27.4904C37.9386 27.2574 38.3409 27.2893 38.677 27.2525C38.9553 27.0531 39.3446 26.9195 39.6521 26.8301C39.7147 26.8063 39.7768 26.7832 39.8371 26.7615C40.4008 26.5597 40.9868 26.4529 41.5816 26.3955C42.1951 26.3369 42.8103 26.3634 43.4202 26.4474C43.6772 26.4824 43.9318 26.5277 44.1846 26.587C44.6372 26.6469 45.0873 26.7457 45.5401 26.8629L45.6307 26.8865C46.1075 27.0122 46.5976 27.1208 47.0912 27.0357C47.4931 26.9668 47.8795 26.8114 48.2501 26.6433L48.2983 26.6213C49.113 26.2475 50.3854 25.9654 51.302 25.9654ZM44.1356 27.3323C43.8349 27.2659 43.7066 27.7316 44.0081 27.7982C44.2217 27.8454 44.4027 27.9536 44.5249 28.137L44.5378 28.1569C44.7019 28.4193 45.1168 28.1771 44.9516 27.913C44.7657 27.6158 44.4768 27.4077 44.1356 27.3323ZM52.9401 27.0435C52.8341 26.9685 52.6737 27.0241 52.6122 27.1302C52.5445 27.2469 52.5889 27.3769 52.6881 27.4532L52.6982 27.4607C52.7893 27.5252 52.8779 27.6407 52.8891 27.7592L52.89 27.774C52.902 28.0839 53.3813 28.0855 53.3693 27.774C53.3576 27.4692 53.182 27.2147 52.9401 27.0435Z" fill="#101010"/>
</g>
<rect x="1" y="1" width="78" height="78" rx="39" stroke="#101010" stroke-width="2"/>
<defs>
<clipPath id="clip0_916_9778">
<rect width="68" height="74" fill="white" transform="translate(6 6)"/>
</clipPath>
</defs>
</svg>
