<svg width="25" height="25" viewBox="0 0 25 25" fill="none" xmlns="http://www.w3.org/2000/svg">
<path d="M11.4219 24.7852C11.1172 24.7852 10.8594 24.6992 10.6484 24.5273C10.4375 24.3633 10.2969 24.1289 10.2266 23.8242L9.61719 21.2461C9.39062 21.168 9.16797 21.0859 8.94922 21C8.73047 20.9141 8.52344 20.8242 8.32812 20.7305L6.07812 22.1133C5.82031 22.2695 5.55469 22.3359 5.28125 22.3125C5.01562 22.2891 4.77734 22.1719 4.56641 21.9609L3.06641 20.4609C2.85547 20.25 2.73438 20.0039 2.70312 19.7227C2.67969 19.4414 2.75391 19.1758 2.92578 18.9258L4.29688 16.6875C4.20312 16.4844 4.11328 16.2773 4.02734 16.0664C3.94141 15.8555 3.86719 15.6445 3.80469 15.4336L1.20312 14.8125C0.898438 14.75 0.664062 14.6133 0.5 14.4023C0.335938 14.1914 0.253906 13.9336 0.253906 13.6289V11.5078C0.253906 11.2109 0.335938 10.957 0.5 10.7461C0.664062 10.5352 0.898438 10.3984 1.20312 10.3359L3.78125 9.71484C3.85156 9.47266 3.92969 9.24609 4.01562 9.03516C4.10938 8.82422 4.19531 8.625 4.27344 8.4375L2.90234 6.16406C2.73047 5.91406 2.65625 5.65625 2.67969 5.39062C2.70312 5.11719 2.82422 4.875 3.04297 4.66406L4.56641 3.15234C4.78516 2.94922 5.01953 2.83203 5.26953 2.80078C5.52734 2.76953 5.78516 2.82812 6.04297 2.97656L8.31641 4.38281C8.51172 4.28125 8.71875 4.1875 8.9375 4.10156C9.16406 4.00781 9.39062 3.92188 9.61719 3.84375L10.2266 1.25391C10.2969 0.957031 10.4375 0.722656 10.6484 0.550781C10.8594 0.378906 11.1172 0.292969 11.4219 0.292969H13.5781C13.8828 0.292969 14.1406 0.378906 14.3516 0.550781C14.5625 0.722656 14.6992 0.957031 14.7617 1.25391L15.3711 3.86719C15.6133 3.94531 15.8398 4.02734 16.0508 4.11328C16.2695 4.19922 16.4727 4.29297 16.6602 4.39453L18.957 2.97656C19.2148 2.82812 19.4688 2.77344 19.7188 2.8125C19.9688 2.84375 20.2031 2.95703 20.4219 3.15234L21.957 4.66406C22.1758 4.875 22.293 5.11719 22.3086 5.39062C22.332 5.65625 22.2617 5.91406 22.0977 6.16406L20.7148 8.4375C20.793 8.625 20.875 8.82422 20.9609 9.03516C21.0547 9.24609 21.1406 9.47266 21.2188 9.71484L23.7969 10.3359C24.0938 10.3984 24.3242 10.5352 24.4883 10.7461C24.6602 10.957 24.7461 11.2109 24.7461 11.5078V13.6289C24.7461 13.9336 24.6602 14.1914 24.4883 14.4023C24.3242 14.6133 24.0938 14.75 23.7969 14.8125L21.1953 15.4336C21.125 15.6445 21.0469 15.8555 20.9609 16.0664C20.8828 16.2773 20.793 16.4844 20.6914 16.6875L22.0742 18.9258C22.2461 19.1758 22.3164 19.4414 22.2852 19.7227C22.2617 20.0039 22.1445 20.25 21.9336 20.4609L20.4219 21.9609C20.2109 22.1719 19.9688 22.2891 19.6953 22.3125C19.4297 22.3359 19.1719 22.2695 18.9219 22.1133L16.6602 20.7305C16.4648 20.8242 16.2578 20.9141 16.0391 21C15.8203 21.0859 15.5977 21.168 15.3711 21.2461L14.7617 23.8242C14.6992 24.1289 14.5625 24.3633 14.3516 24.5273C14.1406 24.6992 13.8828 24.7852 13.5781 24.7852H11.4219ZM12.5 16.6758C13.2578 16.6758 13.9492 16.4883 14.5742 16.1133C15.207 15.7383 15.707 15.2383 16.0742 14.6133C16.4492 13.9805 16.6367 13.2852 16.6367 12.5273C16.6367 11.7695 16.4492 11.082 16.0742 10.4648C15.707 9.83984 15.207 9.33984 14.5742 8.96484C13.9492 8.58984 13.2578 8.40234 12.5 8.40234C11.7422 8.40234 11.0508 8.58984 10.4258 8.96484C9.80078 9.33984 9.30078 9.83984 8.92578 10.4648C8.55078 11.082 8.36328 11.7695 8.36328 12.5273C8.36328 13.2852 8.54688 13.9805 8.91406 14.6133C9.28906 15.2383 9.78906 15.7383 10.4141 16.1133C11.0469 16.4883 11.7422 16.6758 12.5 16.6758Z" fill="white"/>
</svg>
