<svg width="19" height="17" viewBox="0 0 19 17" fill="none" xmlns="http://www.w3.org/2000/svg">
<path d="M12.8398 16.5205C12.4062 16.5205 12.0078 16.4121 11.6445 16.1953C11.2871 15.9844 11 15.7002 10.7832 15.3428C10.5723 14.9854 10.4668 14.5898 10.4668 14.1562C10.4668 13.7227 10.5723 13.3271 10.7832 12.9697C11 12.6064 11.2871 12.3193 11.6445 12.1084C12.0078 11.8916 12.4062 11.7832 12.8398 11.7832C13.2793 11.7832 13.6777 11.8916 14.0352 12.1084C14.3926 12.3193 14.6768 12.6064 14.8877 12.9697C15.1045 13.3271 15.2129 13.7227 15.2129 14.1562C15.2129 14.5898 15.1045 14.9854 14.8877 15.3428C14.6768 15.7002 14.3896 15.9844 14.0264 16.1953C13.6689 16.4121 13.2734 16.5205 12.8398 16.5205ZM12.8398 15.2637C13.1504 15.2637 13.4141 15.1553 13.6309 14.9385C13.8477 14.7217 13.9561 14.4609 13.9561 14.1562C13.9561 13.8398 13.8477 13.5762 13.6309 13.3652C13.4141 13.1484 13.1504 13.04 12.8398 13.04C12.5352 13.04 12.2744 13.1484 12.0576 13.3652C11.8408 13.5762 11.7324 13.8398 11.7324 14.1562C11.7324 14.4609 11.8408 14.7217 12.0576 14.9385C12.2744 15.1553 12.5352 15.2637 12.8398 15.2637ZM11.2754 13.2246V15.0791H1.18555C0.939453 15.0791 0.725586 14.9883 0.543945 14.8066C0.368164 14.6191 0.280273 14.4023 0.280273 14.1562C0.280273 13.8984 0.368164 13.6787 0.543945 13.4971C0.719727 13.3154 0.933594 13.2246 1.18555 13.2246H11.2754ZM17.8232 13.2246C18.0693 13.2246 18.2803 13.3154 18.4561 13.4971C18.6318 13.6787 18.7197 13.8984 18.7197 14.1562C18.7197 14.4023 18.6318 14.6191 18.4561 14.8066C18.2803 14.9883 18.0693 15.0791 17.8232 15.0791H14.4834V13.2246H17.8232ZM6.25684 10.9834C5.82324 10.9834 5.4248 10.875 5.06152 10.6582C4.7041 10.4414 4.41992 10.1543 4.20898 9.79688C3.99805 9.43945 3.89258 9.04102 3.89258 8.60156C3.89258 8.16797 3.99805 7.77246 4.20898 7.41504C4.41992 7.05762 4.7041 6.77344 5.06152 6.5625C5.4248 6.3457 5.82324 6.2373 6.25684 6.2373C6.69043 6.2373 7.08594 6.3457 7.44336 6.5625C7.80078 6.77344 8.08789 7.05762 8.30469 7.41504C8.52148 7.77246 8.62988 8.16797 8.62988 8.60156C8.62988 9.04102 8.52148 9.43945 8.30469 9.79688C8.08789 10.1543 7.80078 10.4414 7.44336 10.6582C7.08594 10.875 6.69043 10.9834 6.25684 10.9834ZM6.25684 9.71777C6.57324 9.71777 6.83691 9.60938 7.04785 9.39258C7.26465 9.17578 7.37305 8.91211 7.37305 8.60156C7.37305 8.28516 7.26465 8.02148 7.04785 7.81055C6.83691 7.59961 6.57324 7.49414 6.25684 7.49414C5.94629 7.49414 5.68262 7.59961 5.46582 7.81055C5.24902 8.02148 5.14062 8.28516 5.14062 8.60156C5.14062 8.91211 5.24902 9.17578 5.46582 9.39258C5.68262 9.60938 5.94629 9.71777 6.25684 9.71777ZM1.16797 7.66992H4.65723V9.5332H1.16797C0.927734 9.5332 0.719727 9.44238 0.543945 9.26074C0.368164 9.07324 0.280273 8.85352 0.280273 8.60156C0.280273 8.34961 0.368164 8.13281 0.543945 7.95117C0.719727 7.76367 0.927734 7.66992 1.16797 7.66992ZM17.8057 7.66992C18.0576 7.66992 18.2715 7.76074 18.4473 7.94238C18.6289 8.12402 18.7197 8.34375 18.7197 8.60156C18.7197 8.85938 18.6289 9.0791 18.4473 9.26074C18.2715 9.44238 18.0576 9.5332 17.8057 9.5332H7.78613V7.66992H17.8057ZM12.8398 5.42871C12.4062 5.42871 12.0078 5.32031 11.6445 5.10352C11.2871 4.88672 11 4.59961 10.7832 4.24219C10.5723 3.88477 10.4668 3.48926 10.4668 3.05566C10.4668 2.62207 10.5723 2.22656 10.7832 1.86914C11 1.50586 11.2871 1.21875 11.6445 1.00781C12.0078 0.791016 12.4062 0.682617 12.8398 0.682617C13.2734 0.682617 13.6689 0.791016 14.0264 1.00781C14.3896 1.21875 14.6768 1.50586 14.8877 1.86914C15.1045 2.22656 15.2129 2.62207 15.2129 3.05566C15.2129 3.48926 15.1045 3.88477 14.8877 4.24219C14.6768 4.59961 14.3896 4.88672 14.0264 5.10352C13.6689 5.32031 13.2734 5.42871 12.8398 5.42871ZM12.8398 4.17188C13.1504 4.17188 13.4141 4.06348 13.6309 3.84668C13.8477 3.62402 13.9561 3.35742 13.9561 3.04688C13.9561 2.73633 13.8477 2.47559 13.6309 2.26465C13.4141 2.04785 13.1504 1.93945 12.8398 1.93945C12.5352 1.93945 12.2744 2.04785 12.0576 2.26465C11.8408 2.47559 11.7324 2.73633 11.7324 3.04688C11.7324 3.35742 11.8408 3.62402 12.0576 3.84668C12.2744 4.06348 12.5352 4.17188 12.8398 4.17188ZM11.3018 2.12402V3.9873H1.18555C0.939453 3.9873 0.725586 3.89355 0.543945 3.70605C0.368164 3.51855 0.280273 3.30176 0.280273 3.05566C0.280273 2.80371 0.368164 2.58691 0.543945 2.40527C0.719727 2.21777 0.933594 2.12402 1.18555 2.12402H11.3018ZM17.8232 2.12402C18.0693 2.12402 18.2803 2.21777 18.4561 2.40527C18.6318 2.58691 18.7197 2.80371 18.7197 3.05566C18.7197 3.30762 18.6318 3.52734 18.4561 3.71484C18.2803 3.89648 18.0693 3.9873 17.8232 3.9873H14.3955V2.12402H17.8232Z" fill="#101010"/>
</svg>
