<svg width="21" height="19" viewBox="0 0 21 19" fill="none" xmlns="http://www.w3.org/2000/svg">
<path d="M0.568359 12.625C0.399089 12.4557 0.275391 12.2409 0.197266 11.9805C0.125651 11.7201 0.122396 11.4434 0.1875 11.1504C0.252604 10.8509 0.408854 10.5612 0.65625 10.2812C0.714844 10.2161 0.796224 10.1315 0.900391 10.0273C1.00456 9.92318 1.13151 9.79622 1.28125 9.64648C1.4375 9.49674 1.61979 9.32096 1.82812 9.11914C2.03646 8.91732 2.27409 8.68294 2.54102 8.41602C4.55273 6.43034 6.26823 4.81901 7.6875 3.58203C9.11328 2.34505 10.321 1.44336 11.3105 0.876953C12.3066 0.304036 13.1562 0.0338542 13.8594 0.0664062C14.569 0.0989583 15.207 0.391927 15.7734 0.945312C16.1901 1.34896 16.4049 1.82422 16.418 2.37109C16.431 2.91146 16.278 3.5332 15.959 4.23633C15.64 4.93945 15.1875 5.73372 14.6016 6.61914C14.0221 7.49805 13.3483 8.47461 12.5801 9.54883C11.9225 10.4668 11.3626 11.248 10.9004 11.8926C10.4382 12.5371 10.0605 13.0742 9.76758 13.5039C9.47461 13.9336 9.25651 14.2819 9.11328 14.5488C8.97656 14.8092 8.90169 15.0176 8.88867 15.1738C8.88216 15.3236 8.92773 15.4505 9.02539 15.5547C9.11654 15.6458 9.24674 15.6784 9.41602 15.6523C9.5918 15.6263 9.83268 15.5221 10.1387 15.3398C10.4512 15.151 10.8548 14.8613 11.3496 14.4707C11.8444 14.0801 12.4596 13.5592 13.1953 12.9082C13.9766 12.2246 14.6732 11.6289 15.2852 11.1211C15.9036 10.6133 16.457 10.2227 16.9453 9.94922C17.4401 9.66927 17.8893 9.53255 18.293 9.53906C18.7031 9.54557 19.084 9.72135 19.4355 10.0664C19.7025 10.3268 19.8652 10.61 19.9238 10.916C19.9889 11.222 19.9694 11.5638 19.8652 11.9414C19.7676 12.3125 19.6048 12.7259 19.377 13.1816C19.1491 13.6374 18.8789 14.1419 18.5664 14.6953C18.2344 15.2812 17.9609 15.7728 17.7461 16.1699C17.5378 16.5605 17.3978 16.8698 17.3262 17.0977C17.2546 17.3255 17.2643 17.4818 17.3555 17.5664C17.4336 17.6445 17.5801 17.6445 17.7949 17.5664C18.0098 17.4948 18.2865 17.3353 18.625 17.0879C18.9701 16.8405 19.3704 16.4954 19.8262 16.0527C19.9564 15.929 20.1029 15.8607 20.2656 15.8477C20.4284 15.8346 20.5716 15.89 20.6953 16.0137C20.8255 16.1439 20.8743 16.2969 20.8418 16.4727C20.8092 16.6484 20.7116 16.8177 20.5488 16.9805C19.6178 17.8919 18.7878 18.4486 18.0586 18.6504C17.3359 18.8522 16.7793 18.7578 16.3887 18.3672C16.1087 18.0807 15.9557 17.7617 15.9297 17.4102C15.9036 17.0651 15.9622 16.6973 16.1055 16.3066C16.2487 15.9095 16.4375 15.5059 16.6719 15.0957C16.9128 14.6855 17.1504 14.2786 17.3848 13.875C17.6322 13.4518 17.8438 13.0775 18.0195 12.752C18.1953 12.4264 18.3125 12.1562 18.3711 11.9414C18.4297 11.7266 18.4036 11.5671 18.293 11.4629C18.1497 11.3132 17.8958 11.349 17.5312 11.5703C17.1732 11.7917 16.7272 12.1335 16.1934 12.5957C15.666 13.0514 15.0768 13.569 14.4258 14.1484C13.2604 15.1641 12.2253 15.9876 11.3203 16.6191C10.4219 17.2507 9.63411 17.6283 8.95703 17.752C8.27995 17.8822 7.70052 17.7031 7.21875 17.2148C6.85417 16.8568 6.64909 16.4499 6.60352 15.9941C6.55794 15.5319 6.63932 15.0241 6.84766 14.4707C7.0625 13.9173 7.37174 13.3151 7.77539 12.6641C8.17904 12.013 8.65104 11.3132 9.19141 10.5645C9.73828 9.80924 10.3177 9.00195 10.9297 8.14258C11.3398 7.57617 11.7402 7.01302 12.1309 6.45312C12.5215 5.88672 12.8633 5.36263 13.1562 4.88086C13.4492 4.39258 13.651 3.97917 13.7617 3.64062C13.8789 3.29557 13.8691 3.0612 13.7324 2.9375C13.5566 2.78125 13.2246 2.85938 12.7363 3.17188C12.248 3.47786 11.6165 3.98242 10.8418 4.68555C10.0736 5.38216 9.17513 6.24154 8.14648 7.26367C7.12435 8.2793 5.99154 9.41862 4.74805 10.6816C4.48763 10.9421 4.25651 11.1764 4.05469 11.3848C3.85286 11.5866 3.67708 11.7656 3.52734 11.9219C3.3776 12.0716 3.25065 12.1986 3.14648 12.3027C3.04232 12.4069 2.95768 12.4883 2.89258 12.5469C2.63216 12.7812 2.35221 12.931 2.05273 12.9961C1.75977 13.0612 1.47982 13.0579 1.21289 12.9863C0.952474 12.9147 0.73763 12.7943 0.568359 12.625Z" fill="white"/>
</svg>
