<svg width="31" height="71" viewBox="0 0 31 71" fill="none" xmlns="http://www.w3.org/2000/svg">
<path d="M17.2188 67.6875C14.7188 67.6875 12.4688 66.9896 10.4688 65.5938C8.47917 64.1979 6.94792 61.9062 5.875 58.7188L3.34375 51.1719C3.30208 51.0469 3.26562 50.9115 3.23438 50.7656C3.20312 50.6198 3.1875 50.4531 3.1875 50.2656C3.1875 49.8281 3.34375 49.4531 3.65625 49.1406C3.97917 48.8177 4.40625 48.6562 4.9375 48.6562C5.29167 48.6562 5.59896 48.75 5.85938 48.9375C6.11979 49.1146 6.33854 49.401 6.51562 49.7969L8.8125 55.2188C8.98958 55.6146 9.21354 55.8125 9.48438 55.8125C9.61979 55.8125 9.73958 55.7604 9.84375 55.6562C9.95833 55.5417 10.0156 55.375 10.0156 55.1562V37.7969C10.0156 37.224 10.1771 36.7656 10.5 36.4219C10.8333 36.0677 11.2656 35.8906 11.7969 35.8906C12.2865 35.8906 12.6979 36.0677 13.0312 36.4219C13.3646 36.7656 13.5312 37.224 13.5312 37.7969V49.6562C13.5312 49.9688 13.599 50.2031 13.7344 50.3594C13.8802 50.5156 14.0521 50.5938 14.25 50.5938C14.4375 50.5938 14.599 50.5156 14.7344 50.3594C14.8802 50.2031 14.9531 49.9688 14.9531 49.6562V46.1094C14.9531 45.5781 15.2604 45.3125 15.875 45.3125C16.5521 45.3125 17.1198 45.5312 17.5781 45.9688C18.0469 46.4062 18.2812 47.0781 18.2812 47.9844V49.6562C18.2812 49.9688 18.349 50.2031 18.4844 50.3594C18.6302 50.5156 18.8073 50.5938 19.0156 50.5938C19.2031 50.5938 19.3646 50.5156 19.5 50.3594C19.6354 50.2031 19.7031 49.9688 19.7031 49.6562V47.8438C19.7031 47.3125 20.0104 47.0469 20.625 47.0469C21.3229 47.0469 21.901 47.2917 22.3594 47.7812C22.8281 48.2708 23.0625 48.9167 23.0625 49.7188V50.5938C23.0625 50.9062 23.1302 51.1406 23.2656 51.2969C23.4115 51.4531 23.5833 51.5312 23.7812 51.5312C23.9688 51.5312 24.1302 51.4531 24.2656 51.2969C24.4115 51.1406 24.4844 50.9062 24.4844 50.5938V49.2656C24.4844 48.9323 24.6562 48.7656 25 48.7656C25.5 48.7656 25.9635 48.9427 26.3906 49.2969C26.8177 49.651 27.1615 50.1615 27.4219 50.8281C27.6823 51.4844 27.8125 52.2708 27.8125 53.1875V56.1875C27.8125 58.6042 27.401 60.6719 26.5781 62.3906C25.7552 64.1094 24.5521 65.4219 22.9688 66.3281C21.3958 67.2344 19.4792 67.6875 17.2188 67.6875Z" fill="white"/>
<path d="M26.875 14.5391C26.875 14.8359 26.7578 15.0977 26.5234 15.3242L18.7305 23.0938C18.5039 23.3125 18.25 23.4219 17.9688 23.4219C17.6797 23.4219 17.4375 23.3242 17.2422 23.1289C17.0469 22.9414 16.9492 22.7031 16.9492 22.4141C16.9492 22.2734 16.9727 22.1406 17.0195 22.0156C17.0664 21.8828 17.1367 21.7695 17.2305 21.6758L19.8555 19.0039L24.5078 14.7734L24.7422 15.3477L20.9688 15.582H6.14453C5.83984 15.582 5.58984 15.4844 5.39453 15.2891C5.20703 15.0938 5.11328 14.8438 5.11328 14.5391C5.11328 14.2344 5.20703 13.9844 5.39453 13.7891C5.58984 13.5938 5.83984 13.4961 6.14453 13.4961H20.9688L24.7422 13.7305L24.5078 14.3164L19.8555 10.0742L17.2305 7.40234C17.1367 7.30859 17.0664 7.19922 17.0195 7.07422C16.9727 6.94141 16.9492 6.80469 16.9492 6.66406C16.9492 6.375 17.0469 6.13672 17.2422 5.94922C17.4375 5.75391 17.6797 5.65625 17.9688 5.65625C18.1094 5.65625 18.2422 5.68359 18.3672 5.73828C18.5 5.79297 18.6289 5.88281 18.7539 6.00781L26.5234 13.7539C26.7578 13.9805 26.875 14.2422 26.875 14.5391Z" fill="white"/>
</svg>
