<svg width="17" height="16" viewBox="0 0 17 16" fill="none" xmlns="http://www.w3.org/2000/svg">
<path d="M0.941406 15.5078C0.798177 15.3711 0.703776 15.2083 0.658203 15.0195C0.61263 14.8307 0.61263 14.6419 0.658203 14.4531C0.710286 14.2643 0.804688 14.1048 0.941406 13.9746L6.9375 7.95898L0.941406 1.95312C0.804688 1.82292 0.713542 1.66341 0.667969 1.47461C0.622396 1.28581 0.622396 1.09701 0.667969 0.908203C0.713542 0.719401 0.804688 0.556641 0.941406 0.419922C1.08464 0.276693 1.25065 0.182292 1.43945 0.136719C1.62826 0.0911458 1.81706 0.0911458 2.00586 0.136719C2.19466 0.182292 2.35742 0.273438 2.49414 0.410156L8.5 6.41602L14.4961 0.410156C14.6328 0.266927 14.7956 0.175781 14.9844 0.136719C15.1732 0.0911458 15.3587 0.0911458 15.541 0.136719C15.7298 0.182292 15.8991 0.276693 16.0488 0.419922C16.1855 0.556641 16.2767 0.719401 16.3223 0.908203C16.3743 1.09701 16.3743 1.28581 16.3223 1.47461C16.2767 1.6569 16.1855 1.81966 16.0488 1.96289L10.0527 7.95898L16.0488 13.9648C16.1855 14.1081 16.2767 14.2741 16.3223 14.4629C16.3678 14.6452 16.3678 14.8307 16.3223 15.0195C16.2767 15.2083 16.1855 15.3711 16.0488 15.5078C15.9056 15.651 15.7396 15.7454 15.5508 15.791C15.362 15.8366 15.1732 15.8366 14.9844 15.791C14.7956 15.7454 14.6328 15.6543 14.4961 15.5176L8.5 9.51172L2.49414 15.5176C2.35742 15.6543 2.19466 15.7454 2.00586 15.791C1.82357 15.8366 1.63477 15.8366 1.43945 15.791C1.25065 15.7454 1.08464 15.651 0.941406 15.5078Z" fill="#101010"/>
</svg>
