<svg width="30" height="24" viewBox="0 0 30 24" fill="none" xmlns="http://www.w3.org/2000/svg">
<path d="M12.9199 17.2227H11.7578L8.38867 20.2305C8.0957 20.4909 7.84831 20.6829 7.64648 20.8066C7.44466 20.9368 7.22331 21.002 6.98242 21.002C6.64388 21.002 6.38021 20.8913 6.19141 20.6699C6.00911 20.4486 5.91797 20.1491 5.91797 19.7715V17.2227H5.44922C4.47917 17.2227 3.66211 17.0501 2.99805 16.7051C2.33398 16.36 1.82943 15.8555 1.48438 15.1914C1.14583 14.5208 0.976562 13.7103 0.976562 12.7598V5.26953C0.976562 4.31901 1.14583 3.51172 1.48438 2.84766C1.82943 2.17708 2.33398 1.66927 2.99805 1.32422C3.66211 0.972656 4.47917 0.796875 5.44922 0.796875H18.0273C18.9974 0.796875 19.8145 0.972656 20.4785 1.32422C21.1426 1.66927 21.6439 2.17708 21.9824 2.84766C22.3275 3.51172 22.5 4.31901 22.5 5.26953V6.87109H20.9277V5.2793C20.9277 4.32878 20.6901 3.60612 20.2148 3.11133C19.7396 2.61654 19.0104 2.36914 18.0273 2.36914H5.44922C4.45964 2.36914 3.72721 2.61654 3.25195 3.11133C2.7832 3.60612 2.54883 4.32878 2.54883 5.2793V12.75C2.54883 13.7005 2.7832 14.4232 3.25195 14.918C3.72721 15.4062 4.45964 15.6504 5.44922 15.6504H6.65039C6.91732 15.6504 7.10612 15.709 7.2168 15.8262C7.32747 15.9368 7.38281 16.1257 7.38281 16.3926V19.2148L10.5078 16.1191C10.6901 15.9238 10.8659 15.7969 11.0352 15.7383C11.2044 15.6797 11.4258 15.6504 11.6992 15.6504H12.4414L12.9199 17.2227ZM15.6641 19.5762C14.7266 19.5762 13.9388 19.4102 13.3008 19.0781C12.6693 18.7526 12.1908 18.2741 11.8652 17.6426C11.5397 17.0046 11.377 16.2233 11.377 15.2988V10.0156C11.377 9.09115 11.5397 8.3099 11.8652 7.67188C12.1908 7.03385 12.6693 6.55208 13.3008 6.22656C13.9388 5.89453 14.7266 5.72852 15.6641 5.72852H24.7363C25.6738 5.72852 26.4583 5.89453 27.0898 6.22656C27.7279 6.55208 28.2096 7.03385 28.5352 7.67188C28.8607 8.3099 29.0234 9.09115 29.0234 10.0156V15.2988C29.0234 16.2233 28.8607 17.0046 28.5352 17.6426C28.2096 18.2741 27.7279 18.7526 27.0898 19.0781C26.4583 19.4102 25.6738 19.5762 24.7363 19.5762H24.5312V21.9199C24.5312 22.291 24.4401 22.5872 24.2578 22.8086C24.0755 23.0299 23.8151 23.1406 23.4766 23.1406C23.2422 23.1406 23.0241 23.0755 22.8223 22.9453C22.627 22.8151 22.3828 22.623 22.0898 22.3691L18.8281 19.5762H15.6641ZM15.6934 18.0039H18.7695C18.9714 18.0039 19.1471 18.0365 19.2969 18.1016C19.4466 18.1602 19.6029 18.2643 19.7656 18.4141L23.0664 21.3633V18.8047C23.0664 18.5312 23.138 18.3294 23.2812 18.1992C23.431 18.069 23.61 18.0039 23.8184 18.0039H24.7168C25.6673 18.0039 26.3607 17.7793 26.7969 17.3301C27.2331 16.8743 27.4512 16.1875 27.4512 15.2695V10.0352C27.4512 9.1237 27.2331 8.4401 26.7969 7.98438C26.3607 7.52865 25.6673 7.30078 24.7168 7.30078H15.6934C14.7363 7.30078 14.0397 7.52865 13.6035 7.98438C13.1738 8.4401 12.959 9.1237 12.959 10.0352V15.2793C12.959 16.1908 13.1738 16.8743 13.6035 17.3301C14.0397 17.7793 14.7363 18.0039 15.6934 18.0039Z" fill="#878787"/>
</svg>
