<svg width="24" height="24" viewBox="0 0 24 24" fill="none" xmlns="http://www.w3.org/2000/svg">
<path d="M13.642 20.0889H10.3601C10.108 20.0889 9.9071 20.3144 9.9071 20.5419V23.547C9.9071 23.7992 10.108 24 10.3601 24H13.642C13.8941 24 14.095 23.7992 14.095 23.547V20.5419C14.095 20.3164 13.8941 20.0889 13.642 20.0889Z" fill="#878787"/>
<path d="M7.44113 18.8794L5.12066 16.5589C4.94232 16.3806 4.64099 16.399 4.4811 16.5589L2.35537 18.6847C2.17703 18.863 2.17703 19.1479 2.35537 19.3242L4.67584 21.6447C4.85418 21.823 5.13911 21.823 5.3154 21.6447L7.44113 19.519C7.60102 19.3591 7.61947 19.0557 7.44113 18.8794Z" fill="#878787"/>
<path d="M3.91117 13.642V10.3601C3.91117 10.108 3.68569 9.9071 3.45815 9.9071H0.453024C0.200888 9.9071 0 10.108 0 10.3601V13.642C0 13.8941 0.200888 14.095 0.453024 14.095H3.45815C3.68364 14.095 3.91117 13.8941 3.91117 13.642Z" fill="#878787"/>
<path d="M5.12066 7.44107L7.44113 5.1206C7.61947 4.94226 7.60102 4.64093 7.44113 4.48104L5.3154 2.35531C5.13706 2.17697 4.85213 2.17697 4.67584 2.35531L2.35537 4.67578C2.17703 4.85412 2.17703 5.13905 2.35537 5.31534L4.4811 7.44107C4.64099 7.60096 4.94437 7.61941 5.12066 7.44107Z" fill="#878787"/>
<path d="M10.3582 3.91117H13.64C13.8922 3.91117 14.0931 3.68569 14.0931 3.45815V0.453024C14.0931 0.200888 13.8922 0 13.64 0H10.3582C10.106 0 9.90515 0.200888 9.90515 0.453024V3.45815C9.90515 3.68364 10.106 3.91117 10.3582 3.91117Z" fill="#878787"/>
<path d="M16.5589 5.1206L18.8794 7.44107C19.0577 7.61941 19.3591 7.60096 19.519 7.44107L21.6447 5.31534C21.823 5.137 21.823 4.85207 21.6447 4.67578L19.3242 2.35531C19.1459 2.17697 18.861 2.17697 18.6847 2.35531L16.5589 4.48104C16.399 4.64093 16.3806 4.94431 16.5589 5.1206Z" fill="#878787"/>
<path d="M20.0889 10.3581V13.6399C20.0889 13.892 20.3144 14.0929 20.542 14.0929H23.5471C23.7992 14.0929 24.0001 13.892 24.0001 13.6399V10.3581C24.0001 10.1059 23.7992 9.90503 23.5471 9.90503H20.542C20.3165 9.90503 20.0889 10.1059 20.0889 10.3581Z" fill="#878787"/>
<path d="M18.8814 16.5589L16.5609 18.8794C16.3826 19.0577 16.401 19.3591 16.5609 19.519L18.6866 21.6447C18.865 21.823 19.1499 21.823 19.3262 21.6447L21.6466 19.3242C21.825 19.1459 21.825 18.861 21.6466 18.6847L19.5209 16.5589C19.361 16.399 19.0576 16.3806 18.8814 16.5589Z" fill="#878787"/>
<path d="M9.34997 15.2112H14.65C15.0567 15.2112 15.3803 14.8398 15.3803 14.4685V9.53147C15.3803 9.11783 15.0545 8.7887 14.65 8.7887H9.34997C8.94329 8.7887 8.61969 9.12005 8.61969 9.53147V14.4685C8.61969 14.8398 8.94547 15.2112 9.34997 15.2112Z" fill="#878787"/>
</svg>
