<svg width="47" height="24" viewBox="0 0 47 24" fill="none" xmlns="http://www.w3.org/2000/svg">
<path d="M11.0718 23.9433H1.58236C0.970863 23.9433 0.47168 23.4519 0.47168 22.85V18.8058C0.47168 18.2038 0.970863 17.7124 1.58236 17.7124H11.0718C11.6833 17.7124 12.1824 18.2038 12.1824 18.8058V22.85C12.1824 23.4519 11.6833 23.9433 11.0718 23.9433Z" fill="#101010"/>
<path d="M14.5711 11.7496L9.82643 3.66114C9.52193 3.14025 9.70413 2.46949 10.2333 2.16728L13.7899 0.145178C14.3191 -0.154576 15.0004 0.0247849 15.3074 0.545668L20.0521 8.63409C20.3566 9.15498 20.1744 9.82574 19.6453 10.1279L16.0886 12.1501C15.5595 12.4498 14.8781 12.2704 14.5711 11.7496Z" fill="#101010"/>
<path d="M27.0477 8.63409L31.7924 0.545668C32.0969 0.0247849 32.7808 -0.154576 33.3099 0.145178L36.8666 2.16728C37.3957 2.46704 37.5779 3.14025 37.2734 3.66114L32.5287 11.7496C32.2242 12.2704 31.5403 12.4498 31.0112 12.1501L27.4545 10.1279C26.9254 9.82819 26.7432 9.15498 27.0477 8.63409Z" fill="#101010"/>
<path d="M36.0286 17.7148H45.518C46.1295 17.7148 46.6287 18.2062 46.6287 18.8082V22.8524C46.6287 23.4544 46.1295 23.9458 45.518 23.9458H36.0286C35.4171 23.9458 34.9179 23.4544 34.9179 22.8524V18.8082C34.9179 18.2062 35.4171 17.7148 36.0286 17.7148Z" fill="#101010"/>
</svg>
