<svg width="56" height="18" viewBox="0 0 56 18" fill="none" xmlns="http://www.w3.org/2000/svg">
<g clip-path="url(#clip0_546_5970)">
<path d="M0 17.2002V0.747825C0 0.47258 0.222715 0.249268 0.497225 0.249268H2.51202C2.78653 0.249268 3.00925 0.47258 3.00925 0.747825V7.281C3.00925 7.47835 3.25786 7.53028 3.35627 7.37968L7.9815 0.524513C8.07991 0.34794 8.25601 0.249268 8.57714 0.249268H10.6385C11.1617 0.249268 11.286 0.773791 11.0633 1.09578L6.21532 8.35083C6.03922 8.62607 6.0185 8.79745 6.21532 9.12463L11.1617 16.8055C11.4362 17.2314 11.286 17.704 10.7629 17.704H8.57714C8.27673 17.704 8.07991 17.5793 7.92971 17.356L3.35627 10.4022C3.25786 10.2516 3.00925 10.3035 3.00925 10.5009V17.2054C3.00925 17.4807 2.78653 17.704 2.51202 17.704H0.497225C0.222715 17.704 0 17.4807 0 17.2054V17.2002Z" fill="black"/>
<path d="M11.7107 17.2002V5.73342C11.7107 5.45818 11.9334 5.23487 12.2079 5.23487H13.6012C14.2227 5.23487 14.0984 5.95674 14.6215 5.95674C15.269 5.95674 15.5901 4.93365 17.7033 4.93365C20.0133 4.93365 21.7536 6.67861 21.7536 9.49338V17.1951C21.7536 17.4703 21.5309 17.6936 21.2564 17.6936H19.4177C19.1432 17.6936 18.9205 17.4703 18.9205 17.1951V9.94C18.9205 8.49626 18.0244 7.74843 16.7555 7.74843C15.4865 7.74843 14.5438 8.49626 14.5438 9.94V17.1951C14.5438 17.4703 14.3211 17.6936 14.0466 17.6936H12.2079C11.9334 17.6936 11.7107 17.4703 11.7107 17.1951V17.2002Z" fill="black"/>
<path d="M23.4421 15.8811C22.6962 14.8321 22.4476 13.7103 22.4476 11.4668C22.4476 9.22333 22.6962 8.10157 23.4421 7.05252C24.3847 5.73342 25.9541 4.93365 27.8187 4.93365C29.6833 4.93365 31.2734 5.70746 32.1953 7.05252C32.9412 8.10157 33.1898 9.2441 33.1898 11.4668C33.1898 13.6896 32.9412 14.8321 32.1953 15.8811C31.2734 17.2262 29.6833 18 27.8187 18C25.9541 18 24.364 17.2262 23.4421 15.8811ZM25.6796 14.0375C26.0784 14.7594 26.8242 15.1852 27.8187 15.1852C28.8132 15.1852 29.559 14.7594 29.9578 14.0375C30.2789 13.487 30.3048 12.8171 30.3048 11.472C30.3048 10.127 30.2789 9.45183 29.9578 8.90653C29.559 8.21063 28.8132 7.75881 27.8187 7.75881C26.8242 7.75881 26.0784 8.20544 25.6796 8.90653C25.3585 9.45702 25.3326 10.127 25.3326 11.472C25.3326 12.8171 25.3585 13.4922 25.6796 14.0375Z" fill="black"/>
<path d="M35.0544 16.1823C34.1117 15.0087 33.8631 13.4662 33.8631 11.472C33.8631 9.47779 34.1117 7.93018 35.0544 6.76169C35.9763 5.61397 37.3903 4.94403 39.2808 4.94403C42.1657 4.94403 44.2789 6.66302 44.2789 9.43105C44.2789 9.70629 44.1287 9.92961 43.8542 9.92961H41.9171C41.6685 9.92961 41.4717 9.779 41.4458 9.52972C41.3733 8.48067 40.5756 7.73284 39.2342 7.73284C38.2915 7.73284 37.5457 8.15869 37.121 8.90652C36.748 9.50375 36.748 10.3035 36.748 11.472C36.748 12.6405 36.748 13.4403 37.121 14.0375C37.5457 14.8113 38.2915 15.2112 39.2342 15.2112C40.6015 15.2112 41.3474 14.4893 41.4458 13.3935C41.4717 13.1443 41.6685 13.0196 41.9171 13.0196H43.8542C44.1028 13.0196 44.2789 13.2429 44.2789 13.5182C44.2789 16.0837 42.4143 18.0052 39.2808 18.0052C37.3903 18.0052 35.9763 17.3301 35.0544 16.1875V16.1823Z" fill="black"/>
<path d="M52.6075 17.3041L49.0026 12.7651C48.8524 12.5886 48.5572 12.6405 48.5572 12.9158V17.2054C48.5572 17.4807 48.3344 17.704 48.0599 17.704H46.1953C45.9208 17.704 45.6981 17.4807 45.6981 17.2054V0.498557C45.6981 0.223312 45.9208 0 46.1953 0H48.0599C48.3344 0 48.5572 0.223312 48.5572 0.498557V9.6232C48.5572 9.87248 48.8576 9.94518 49.0026 9.7738L52.6334 5.56203C52.7318 5.43739 52.9338 5.24005 53.3067 5.24005H55.3474C55.8446 5.24005 55.9689 5.79054 55.7462 6.06059L51.6441 10.8696C51.4473 11.1189 51.4473 11.2695 51.6441 11.5447L55.8964 16.8523C56.1709 17.2262 55.9223 17.6988 55.4976 17.6988H53.3326C52.9597 17.6988 52.7111 17.4235 52.6127 17.2989L52.6075 17.3041Z" fill="black"/>
</g>
<defs>
<clipPath id="clip0_546_5970">
<rect width="56" height="18" fill="white"/>
</clipPath>
</defs>
</svg>
