<svg width="19" height="15" viewBox="0 0 19 15" fill="none" xmlns="http://www.w3.org/2000/svg">
<path d="M5.89648 3.13672C5.63281 3.13672 5.41016 3.04883 5.22852 2.87305C5.05273 2.69141 4.96484 2.46875 4.96484 2.20508C4.96484 1.94727 5.05273 1.72754 5.22852 1.5459C5.41016 1.36426 5.63281 1.27344 5.89648 1.27344H17.7881C18.0459 1.27344 18.2656 1.36426 18.4473 1.5459C18.6289 1.72754 18.7197 1.94727 18.7197 2.20508C18.7197 2.46875 18.6289 2.69141 18.4473 2.87305C18.2656 3.04883 18.0459 3.13672 17.7881 3.13672H5.89648ZM5.89648 8.59473C5.63281 8.59473 5.41016 8.50391 5.22852 8.32227C5.05273 8.14062 4.96484 7.9209 4.96484 7.66309C4.96484 7.40527 5.05273 7.18848 5.22852 7.0127C5.41016 6.83105 5.63281 6.74023 5.89648 6.74023H17.7881C18.0459 6.74023 18.2656 6.83105 18.4473 7.0127C18.6289 7.18848 18.7197 7.40527 18.7197 7.66309C18.7197 7.92676 18.6289 8.14941 18.4473 8.33105C18.2656 8.50684 18.0459 8.59473 17.7881 8.59473H5.89648ZM5.89648 14.0527C5.63281 14.0527 5.41016 13.9648 5.22852 13.7891C5.05273 13.6074 4.96484 13.3848 4.96484 13.1211C4.96484 12.8633 5.05273 12.6436 5.22852 12.4619C5.41016 12.2803 5.63281 12.1895 5.89648 12.1895H17.7881C18.0459 12.1895 18.2656 12.2803 18.4473 12.4619C18.6289 12.6436 18.7197 12.8633 18.7197 13.1211C18.7197 13.3848 18.6289 13.6074 18.4473 13.7891C18.2656 13.9648 18.0459 14.0527 17.7881 14.0527H5.89648ZM1.61621 3.53223C1.24707 3.53223 0.930664 3.40332 0.666992 3.14551C0.40918 2.8877 0.280273 2.57422 0.280273 2.20508C0.280273 1.83594 0.40918 1.52246 0.666992 1.26465C0.930664 1.00684 1.24707 0.87793 1.61621 0.87793C1.97949 0.87793 2.29297 1.00684 2.55664 1.26465C2.82031 1.52246 2.95215 1.83594 2.95215 2.20508C2.95215 2.57422 2.82031 2.8877 2.55664 3.14551C2.29297 3.40332 1.97949 3.53223 1.61621 3.53223ZM1.61621 8.99902C1.24707 8.99902 0.930664 8.86719 0.666992 8.60352C0.40918 8.33984 0.280273 8.02637 0.280273 7.66309C0.280273 7.2998 0.40918 6.98633 0.666992 6.72266C0.930664 6.45898 1.24707 6.32715 1.61621 6.32715C1.97949 6.32715 2.29297 6.45898 2.55664 6.72266C2.82031 6.98633 2.95215 7.2998 2.95215 7.66309C2.95215 8.02637 2.82031 8.33984 2.55664 8.60352C2.29297 8.86719 1.97949 8.99902 1.61621 8.99902ZM1.61621 14.457C1.24707 14.457 0.930664 14.3252 0.666992 14.0615C0.40918 13.8037 0.280273 13.4902 0.280273 13.1211C0.280273 12.752 0.40918 12.4385 0.666992 12.1807C0.930664 11.9229 1.24707 11.7939 1.61621 11.7939C1.97949 11.7939 2.29297 11.9229 2.55664 12.1807C2.82031 12.4385 2.95215 12.752 2.95215 13.1211C2.95215 13.4902 2.82031 13.8037 2.55664 14.0615C2.29297 14.3252 1.97949 14.457 1.61621 14.457Z" fill="#101010"/>
</svg>
