<svg width="18" height="25" viewBox="0 0 18 25" fill="none" xmlns="http://www.w3.org/2000/svg">
<path d="M4.87891 11.1914C4.65755 11.1914 4.46224 11.11 4.29297 10.9473C4.13021 10.778 4.04883 10.5827 4.04883 10.3613C4.04883 10.1335 4.13021 9.93815 4.29297 9.77539C4.46224 9.61263 4.65755 9.53125 4.87891 9.53125C5.10677 9.53125 5.30208 9.61263 5.46484 9.77539C5.6276 9.93164 5.70898 10.127 5.70898 10.3613C5.70898 10.5892 5.6276 10.7845 5.46484 10.9473C5.30208 11.11 5.10677 11.1914 4.87891 11.1914ZM4.87891 14.6484C4.65104 14.6484 4.45573 14.5703 4.29297 14.4141C4.13021 14.2513 4.04883 14.0527 4.04883 13.8184C4.04883 13.597 4.13021 13.4049 4.29297 13.2422C4.45573 13.0794 4.65104 12.998 4.87891 12.998C5.10677 12.998 5.30208 13.0794 5.46484 13.2422C5.6276 13.3984 5.70898 13.5905 5.70898 13.8184C5.70898 14.0527 5.6276 14.2513 5.46484 14.4141C5.30208 14.5703 5.10677 14.6484 4.87891 14.6484ZM4.87891 18.3105C4.65755 18.3105 4.46224 18.2292 4.29297 18.0664C4.13021 17.8971 4.04883 17.7018 4.04883 17.4805C4.04883 17.2526 4.13021 17.0573 4.29297 16.8945C4.46224 16.7318 4.65755 16.6504 4.87891 16.6504C5.10677 16.6504 5.30208 16.7318 5.46484 16.8945C5.6276 17.0508 5.70898 17.2461 5.70898 17.4805C5.70898 17.7083 5.6276 17.9036 5.46484 18.0664C5.30208 18.2292 5.10677 18.3105 4.87891 18.3105ZM7.48633 10.9668C7.31706 10.9668 7.17057 10.9082 7.04688 10.791C6.92969 10.6673 6.87109 10.5241 6.87109 10.3613C6.87109 10.1921 6.92969 10.0488 7.04688 9.93164C7.17057 9.80794 7.31706 9.74609 7.48633 9.74609H13.3457C13.5085 9.74609 13.6484 9.80794 13.7656 9.93164C13.8893 10.0488 13.9512 10.1921 13.9512 10.3613C13.9512 10.5241 13.8893 10.6673 13.7656 10.791C13.6484 10.9082 13.5085 10.9668 13.3457 10.9668H7.48633ZM7.48633 14.4336C7.31055 14.4336 7.16406 14.375 7.04688 14.2578C6.92969 14.1341 6.87109 13.9876 6.87109 13.8184C6.87109 13.6556 6.92969 13.5156 7.04688 13.3984C7.16406 13.2812 7.31055 13.2227 7.48633 13.2227H13.3457C13.515 13.2227 13.6582 13.2812 13.7754 13.3984C13.8926 13.5156 13.9512 13.6556 13.9512 13.8184C13.9512 13.9876 13.8926 14.1341 13.7754 14.2578C13.6582 14.375 13.515 14.4336 13.3457 14.4336H7.48633ZM7.48633 18.0859C7.31706 18.0859 7.17057 18.0273 7.04688 17.9102C6.92969 17.7865 6.87109 17.6432 6.87109 17.4805C6.87109 17.3112 6.92969 17.168 7.04688 17.0508C7.16406 16.9336 7.31055 16.875 7.48633 16.875H13.3457C13.515 16.875 13.6582 16.9336 13.7754 17.0508C13.8926 17.168 13.9512 17.3112 13.9512 17.4805C13.9512 17.6432 13.8893 17.7865 13.7656 17.9102C13.6484 18.0273 13.5085 18.0859 13.3457 18.0859H7.48633ZM3.81445 24.2188C2.80534 24.2188 2.04688 23.9616 1.53906 23.4473C1.03776 22.9395 0.787109 22.1745 0.787109 21.1523V6.34766C0.787109 5.34505 1.02799 4.58333 1.50977 4.0625C1.99805 3.54167 2.73047 3.28125 3.70703 3.28125H3.94141C3.9349 3.32031 3.93164 3.36263 3.93164 3.4082C3.93164 3.44727 3.93164 3.48633 3.93164 3.52539V4.4043C3.93164 4.58659 3.94466 4.73633 3.9707 4.85352H3.73633C3.2806 4.85352 2.93555 4.99023 2.70117 5.26367C2.47331 5.53711 2.35938 5.90495 2.35938 6.36719V21.1328C2.35938 21.6211 2.48633 21.9954 2.74023 22.2559C3.00065 22.5163 3.38477 22.6465 3.89258 22.6465H14.1074C14.6152 22.6465 14.9961 22.5163 15.25 22.2559C15.5104 21.9954 15.6406 21.6211 15.6406 21.1328V6.36719C15.6406 5.90495 15.5234 5.53711 15.2891 5.26367C15.0612 4.99023 14.7194 4.85352 14.2637 4.85352H14.0293C14.0553 4.73633 14.0684 4.58659 14.0684 4.4043V3.52539C14.0684 3.48633 14.0684 3.44727 14.0684 3.4082C14.0684 3.36263 14.0651 3.32031 14.0586 3.28125H14.293C15.2695 3.28125 15.9987 3.54167 16.4805 4.0625C16.9688 4.58333 17.2129 5.34505 17.2129 6.34766V21.1523C17.2129 22.1745 16.959 22.9395 16.4512 23.4473C15.9499 23.9616 15.1947 24.2188 14.1855 24.2188H3.81445ZM5.98242 5.51758C5.69596 5.51758 5.47135 5.43294 5.30859 5.26367C5.15234 5.0944 5.07422 4.85677 5.07422 4.55078V3.52539C5.07422 3.2194 5.15234 2.98177 5.30859 2.8125C5.47135 2.64323 5.69596 2.55859 5.98242 2.55859H6.88086C6.91341 2.00521 7.13151 1.5332 7.53516 1.14258C7.94531 0.751953 8.43359 0.556641 9 0.556641C9.56641 0.556641 10.0514 0.751953 10.4551 1.14258C10.8652 1.5332 11.0866 2.00521 11.1191 2.55859H12.0176C12.304 2.55859 12.5254 2.64323 12.6816 2.8125C12.8444 2.98177 12.9258 3.2194 12.9258 3.52539V4.55078C12.9258 4.85677 12.8444 5.0944 12.6816 5.26367C12.5254 5.43294 12.304 5.51758 12.0176 5.51758H5.98242ZM9 3.48633C9.23438 3.48633 9.43294 3.40169 9.5957 3.23242C9.76497 3.06315 9.84961 2.86458 9.84961 2.63672C9.84961 2.39583 9.76497 2.19401 9.5957 2.03125C9.43294 1.86198 9.23438 1.77734 9 1.77734C8.76562 1.77734 8.5638 1.86198 8.39453 2.03125C8.23177 2.19401 8.15039 2.39583 8.15039 2.63672C8.15039 2.86458 8.23177 3.06315 8.39453 3.23242C8.5638 3.40169 8.76562 3.48633 9 3.48633Z" fill="#878787"/>
</svg>
