<svg width="18" height="19" viewBox="0 0 18 19" fill="none" xmlns="http://www.w3.org/2000/svg">
<path d="M0.413086 8.00195C0.413086 7.03516 0.594727 6.12988 0.958008 5.28613C1.32129 4.43652 1.8252 3.68945 2.46973 3.04492C3.11426 2.40039 3.8584 1.89648 4.70215 1.5332C5.55176 1.16992 6.45996 0.988281 7.42676 0.988281C8.39355 0.988281 9.29883 1.16992 10.1426 1.5332C10.9922 1.89648 11.7393 2.40039 12.3838 3.04492C13.0283 3.68945 13.5322 4.43652 13.8955 5.28613C14.2588 6.12988 14.4404 7.03516 14.4404 8.00195C14.4404 8.80469 14.3115 9.56641 14.0537 10.2871C13.8018 11.0078 13.4502 11.6611 12.999 12.2471L17.2969 16.5713C17.3906 16.665 17.4609 16.7734 17.5078 16.8965C17.5605 17.0195 17.5869 17.1514 17.5869 17.292C17.5869 17.4854 17.543 17.6611 17.4551 17.8193C17.373 17.9775 17.2559 18.1006 17.1035 18.1885C16.9512 18.2822 16.7754 18.3291 16.5762 18.3291C16.4355 18.3291 16.3008 18.3027 16.1719 18.25C16.0488 18.2031 15.9346 18.1299 15.8291 18.0303L11.5049 13.6973C10.9307 14.1074 10.2979 14.4297 9.60645 14.6641C8.91504 14.8984 8.18848 15.0156 7.42676 15.0156C6.45996 15.0156 5.55176 14.834 4.70215 14.4707C3.8584 14.1074 3.11426 13.6035 2.46973 12.959C1.8252 12.3145 1.32129 11.5703 0.958008 10.7266C0.594727 9.87695 0.413086 8.96875 0.413086 8.00195ZM1.91602 8.00195C1.91602 8.76367 2.05664 9.47852 2.33789 10.1465C2.625 10.8086 3.02051 11.3916 3.52441 11.8955C4.03418 12.3994 4.62012 12.7949 5.28223 13.082C5.9502 13.3691 6.66504 13.5127 7.42676 13.5127C8.18848 13.5127 8.90039 13.3691 9.5625 13.082C10.2305 12.7949 10.8164 12.3994 11.3203 11.8955C11.8242 11.3916 12.2197 10.8086 12.5068 10.1465C12.7939 9.47852 12.9375 8.76367 12.9375 8.00195C12.9375 7.24023 12.7939 6.52832 12.5068 5.86621C12.2197 5.19824 11.8242 4.6123 11.3203 4.1084C10.8164 3.59863 10.2305 3.20312 9.5625 2.92188C8.90039 2.63477 8.18848 2.49121 7.42676 2.49121C6.66504 2.49121 5.9502 2.63477 5.28223 2.92188C4.62012 3.20312 4.03418 3.59863 3.52441 4.1084C3.02051 4.6123 2.625 5.19824 2.33789 5.86621C2.05664 6.52832 1.91602 7.24023 1.91602 8.00195Z" fill="#101010"/>
</svg>
