<svg width="19" height="19" viewBox="0 0 19 19" fill="none" xmlns="http://www.w3.org/2000/svg">
<path d="M3.35742 18.1582C1.76237 18.1582 0.964844 17.6374 0.964844 16.5957C0.964844 15.9577 1.16016 15.2773 1.55078 14.5547C1.94141 13.832 2.50456 13.1517 3.24023 12.5137C3.98242 11.8691 4.8776 11.3451 5.92578 10.9414C6.98047 10.5378 8.17188 10.3359 9.5 10.3359C10.8216 10.3359 12.0065 10.5378 13.0547 10.9414C14.1094 11.3451 15.0046 11.8691 15.7402 12.5137C16.4824 13.1517 17.0488 13.832 17.4395 14.5547C17.8301 15.2773 18.0254 15.9577 18.0254 16.5957C18.0254 17.6374 17.2279 18.1582 15.6328 18.1582H3.35742ZM2.89844 16.6836H16.1016C16.2253 16.6836 16.3132 16.6641 16.3652 16.625C16.4238 16.5859 16.4531 16.5143 16.4531 16.4102C16.4531 16.013 16.3001 15.554 15.9941 15.0332C15.6947 14.5059 15.2487 13.998 14.6562 13.5098C14.0638 13.0215 13.3346 12.6178 12.4688 12.2988C11.6094 11.9733 10.6198 11.8105 9.5 11.8105C8.38021 11.8105 7.38737 11.9733 6.52148 12.2988C5.6556 12.6178 4.92643 13.0215 4.33398 13.5098C3.74154 13.998 3.29232 14.5059 2.98633 15.0332C2.68685 15.554 2.53711 16.013 2.53711 16.4102C2.53711 16.5143 2.56315 16.5859 2.61523 16.625C2.67383 16.6641 2.76823 16.6836 2.89844 16.6836ZM9.5 9.125C8.72526 9.125 8.01888 8.91992 7.38086 8.50977C6.74284 8.0931 6.23177 7.53971 5.84766 6.84961C5.47005 6.15299 5.28125 5.38802 5.28125 4.55469C5.28125 3.72786 5.47005 2.97591 5.84766 2.29883C6.23177 1.62174 6.74284 1.08138 7.38086 0.677734C8.01888 0.274089 8.72526 0.0722656 9.5 0.0722656C10.2812 0.0722656 10.9909 0.270833 11.6289 0.667969C12.2669 1.0651 12.7747 1.60221 13.1523 2.2793C13.5299 2.94987 13.7188 3.70182 13.7188 4.53516C13.7188 5.375 13.5267 6.14323 13.1426 6.83984C12.765 7.52995 12.2572 8.08333 11.6191 8.5C10.9811 8.91667 10.2747 9.125 9.5 9.125ZM9.5 7.65039C9.98177 7.65039 10.4212 7.51042 10.8184 7.23047C11.222 6.95052 11.5443 6.57617 11.7852 6.10742C12.026 5.63216 12.1465 5.10807 12.1465 4.53516C12.1465 3.96875 12.026 3.46094 11.7852 3.01172C11.5508 2.55599 11.2318 2.19792 10.8281 1.9375C10.431 1.67708 9.98828 1.54688 9.5 1.54688C9.01823 1.54688 8.57552 1.68034 8.17188 1.94727C7.77474 2.21419 7.45573 2.57552 7.21484 3.03125C6.97396 3.48047 6.85352 3.98828 6.85352 4.55469C6.85352 5.1276 6.97396 5.64844 7.21484 6.11719C7.46224 6.58594 7.78451 6.96029 8.18164 7.24023C8.58529 7.51367 9.02474 7.65039 9.5 7.65039Z" fill="#878787"/>
</svg>
