<svg width="14" height="9" viewBox="0 0 14 9" fill="none" xmlns="http://www.w3.org/2000/svg">
<path d="M7 0.359374C7.26042 0.359374 7.4974 0.463541 7.71094 0.671874L13.6563 6.75781C13.7448 6.84115 13.8125 6.9349 13.8594 7.03906C13.901 7.14844 13.9219 7.26562 13.9219 7.39062C13.9219 7.5625 13.8828 7.71875 13.8047 7.85937C13.7214 8 13.612 8.10937 13.4766 8.1875C13.3411 8.27083 13.1875 8.3125 13.0156 8.3125C12.7656 8.3125 12.5469 8.21875 12.3594 8.03125L6.61719 2.14844L7.375 2.14844L1.64063 8.03125C1.45313 8.21875 1.23438 8.3125 0.984375 8.3125C0.8125 8.3125 0.658855 8.27083 0.523438 8.1875C0.388021 8.10937 0.281251 8 0.203126 7.85937C0.119792 7.71875 0.0781256 7.5625 0.0781256 7.39062C0.0781256 7.14583 0.166667 6.93489 0.343751 6.75781L6.28906 0.671874C6.38802 0.567707 6.4974 0.489583 6.61719 0.437499C6.73698 0.385416 6.86458 0.359374 7 0.359374Z" fill="#202020"/>
</svg>
