<svg width="24" height="24" viewBox="0 0 24 24" fill="none" xmlns="http://www.w3.org/2000/svg">
<path d="M13.6421 20.0889H10.3602C10.1081 20.0889 9.90723 20.3144 9.90723 20.5419V23.547C9.90723 23.7992 10.1081 24 10.3602 24H13.6421C13.8942 24 14.0951 23.7992 14.0951 23.547V20.5419C14.0951 20.3164 13.8942 20.0889 13.6421 20.0889Z" fill="#101010"/>
<path d="M7.44119 18.8793L5.12072 16.5588C4.94238 16.3805 4.64105 16.3989 4.48116 16.5588L2.35543 18.6845C2.17709 18.8629 2.17709 19.1478 2.35543 19.3241L4.6759 21.6446C4.85424 21.8229 5.13917 21.8229 5.31546 21.6446L7.44119 19.5188C7.60108 19.359 7.61953 19.0556 7.44119 18.8793Z" fill="#101010"/>
<path d="M3.91117 13.6419V10.36C3.91117 10.1079 3.68569 9.90698 3.45815 9.90698H0.453024C0.200888 9.90698 0 10.1079 0 10.36V13.6419C0 13.894 0.200888 14.0949 0.453024 14.0949H3.45815C3.68364 14.0949 3.91117 13.894 3.91117 13.6419Z" fill="#101010"/>
<path d="M5.12072 7.44119L7.44119 5.12072C7.61953 4.94238 7.60108 4.64105 7.44119 4.48116L5.31546 2.35543C5.13712 2.17709 4.85219 2.17709 4.6759 2.35543L2.35543 4.6759C2.17709 4.85424 2.17709 5.13917 2.35543 5.31546L4.48116 7.44119C4.64105 7.60108 4.94443 7.61953 5.12072 7.44119Z" fill="#101010"/>
<path d="M10.3583 3.91117H13.6402C13.8923 3.91117 14.0932 3.68569 14.0932 3.45815V0.453024C14.0932 0.200888 13.8923 0 13.6402 0H10.3583C10.1062 0 9.90527 0.200888 9.90527 0.453024V3.45815C9.90527 3.68364 10.1062 3.91117 10.3583 3.91117Z" fill="#101010"/>
<path d="M16.5591 5.12072L18.8795 7.44119C19.0579 7.61953 19.3592 7.60108 19.5191 7.44119L21.6448 5.31546C21.8232 5.13712 21.8232 4.85219 21.6448 4.6759L19.3243 2.35543C19.146 2.17709 18.8611 2.17709 18.6848 2.35543L16.5591 4.48116C16.3992 4.64105 16.3807 4.94443 16.5591 5.12072Z" fill="#101010"/>
<path d="M20.0889 10.3581V13.6399C20.0889 13.892 20.3144 14.0929 20.5419 14.0929H23.547C23.7992 14.0929 24 13.892 24 13.6399V10.3581C24 10.1059 23.7992 9.90503 23.547 9.90503H20.5419C20.3164 9.90503 20.0889 10.1059 20.0889 10.3581Z" fill="#101010"/>
<path d="M18.8815 16.5588L16.561 18.8793C16.3827 19.0576 16.4011 19.359 16.561 19.5188L18.6867 21.6446C18.8651 21.8229 19.15 21.8229 19.3263 21.6446L21.6468 19.3241C21.8251 19.1458 21.8251 18.8608 21.6468 18.6845L19.521 16.5588C19.3612 16.3989 19.0578 16.3805 18.8815 16.5588Z" fill="#101010"/>
<path d="M9.34991 15.2114H14.6499C15.0566 15.2114 15.3802 14.84 15.3802 14.4686V9.53159C15.3802 9.11795 15.0544 8.78882 14.6499 8.78882H9.34991C8.94323 8.78882 8.61963 9.12017 8.61963 9.53159V14.4686C8.61963 14.84 8.94541 15.2114 9.34991 15.2114Z" fill="#101010"/>
</svg>
