<svg width="21" height="22" viewBox="0 0 21 22" fill="none" xmlns="http://www.w3.org/2000/svg">
<path d="M13.293 9.5332L14.1035 10.3535L6.18359 18.2246C5.5651 18.8366 5.0638 19.2858 4.67969 19.5723C4.30208 19.8652 3.98633 20.0638 3.73242 20.168C3.48503 20.2721 3.25065 20.347 3.0293 20.3926C2.80794 20.4447 2.55404 20.5293 2.26758 20.6465C1.98763 20.7637 1.6263 20.985 1.18359 21.3105L0.304688 20.3828C0.630208 19.9206 0.858073 19.5495 0.988281 19.2695C1.11849 18.9896 1.21289 18.7454 1.27148 18.5371C1.33659 18.3288 1.42773 18.1074 1.54492 17.873C1.66211 17.6387 1.86719 17.3392 2.16016 16.9746C2.45312 16.61 2.90234 16.125 3.50781 15.5195L11.3984 7.62891L12.2383 8.45898L8 12.7461C7.8112 12.9414 7.70052 13.1335 7.66797 13.3223C7.64193 13.5046 7.7168 13.6934 7.89258 13.8887C8.06185 14.071 8.2474 14.1458 8.44922 14.1133C8.65755 14.0742 8.84961 13.9701 9.02539 13.8008L13.293 9.5332ZM15.6172 11.3008C15.3307 11.6003 15.0573 11.7337 14.7969 11.7012C14.5365 11.6686 14.276 11.5254 14.0156 11.2715L10.4707 7.72656C10.2168 7.46615 10.0736 7.20573 10.041 6.94531C10.0085 6.6849 10.1452 6.41146 10.4512 6.125L10.7441 5.85156C10.998 5.61068 11.2617 5.49023 11.5352 5.49023C11.8151 5.48372 12.082 5.60742 12.3359 5.86133L12.6191 6.1543C12.9577 5.7832 13.2311 5.4056 13.4395 5.02148C13.6543 4.63086 13.8431 4.25326 14.0059 3.88867C14.1751 3.51758 14.3477 3.16927 14.5234 2.84375C14.6992 2.51823 14.9206 2.22852 15.1875 1.97461C15.6823 1.49935 16.2161 1.21289 16.7891 1.11523C17.3685 1.01758 17.9186 1.05664 18.4395 1.23242C18.9603 1.4082 19.39 1.66862 19.7285 2.01367C20.0736 2.35221 20.334 2.78516 20.5098 3.3125C20.6921 3.83984 20.7344 4.38997 20.6367 4.96289C20.5456 5.53581 20.2559 6.06641 19.7676 6.55469C19.5137 6.8151 19.224 7.03646 18.8984 7.21875C18.5729 7.39453 18.2246 7.5638 17.8535 7.72656C17.4889 7.88932 17.1146 8.07812 16.7305 8.29297C16.3464 8.50781 15.9655 8.78451 15.5879 9.12305L15.8809 9.40625C16.1348 9.66016 16.2585 9.92708 16.252 10.207C16.252 10.487 16.1315 10.7507 15.8906 10.998L15.6172 11.3008Z" fill="#101010"/>
</svg>
