<svg width="236" height="215" viewBox="0 0 236 215" fill="none" xmlns="http://www.w3.org/2000/svg">
<path d="M188.369 65.9838L208.403 57.4488C209.505 56.981 210.315 56.1728 210.834 55.0244C211.304 53.8855 211.349 52.7316 210.967 51.5628C210.519 50.3078 209.697 49.4258 208.5 48.9167C207.246 48.3692 206.002 48.3676 204.766 48.9119L184.817 57.5045C183.629 58.0392 182.804 58.9 182.343 60.0868C181.873 61.2257 181.876 62.3701 182.353 63.5198C182.84 64.7174 183.701 65.5421 184.936 65.9938C186.122 66.4549 187.267 66.4516 188.369 65.9838ZM176.361 43.503L188.392 25.5061C189.16 24.358 189.425 23.1853 189.187 21.988C188.901 20.8002 188.213 19.8417 187.122 19.1125C186.031 18.3833 184.887 18.1377 183.69 18.3755C182.483 18.5655 181.496 19.2345 180.728 20.3827L168.697 38.3795C167.968 39.4703 167.751 40.6335 168.046 41.8692C168.293 43.1144 168.934 44.0824 169.967 44.7732C171.01 45.5119 172.154 45.7575 173.399 45.5102C174.644 45.2628 175.631 44.5938 176.361 43.503ZM148.152 41.7142C149.454 41.7542 150.561 41.3103 151.472 40.3826C152.335 39.4644 152.791 38.3782 152.841 37.1238L153.256 15.5352C153.248 14.2425 152.781 13.1406 151.853 12.2297C150.925 11.3188 149.839 10.8625 148.594 10.8609C147.301 10.8688 146.195 11.3127 145.274 12.1925C144.354 13.0723 143.898 14.1586 143.905 15.4513L143.504 37.1117C143.445 38.3182 143.908 39.3961 144.893 40.3454C145.821 41.2563 146.907 41.7126 148.152 41.7142ZM146.068 175.943L184.005 119.197C185.195 117.417 185.58 115.474 185.162 113.366C184.733 111.211 183.63 109.539 181.85 108.349C180.061 107.112 178.113 106.702 176.005 107.121C173.85 107.549 172.159 108.681 170.931 110.518L146.752 146.684C146.285 145.583 145.788 144.462 145.263 143.321C144.69 142.191 144.064 141.045 143.386 139.886L178.156 87.8757C179.394 86.0866 179.799 84.1145 179.37 81.9593C178.942 79.8042 177.814 78.1365 175.987 76.9563C174.207 75.7666 172.264 75.381 170.157 75.7996C168.002 76.2278 166.329 77.3316 165.139 79.1112L133.132 126.988C132.281 126.211 131.429 125.435 130.578 124.658C129.679 123.891 128.785 123.147 127.895 122.428L162.824 70.0876C164.062 68.2985 164.471 66.3503 164.053 64.2431C163.624 62.0879 162.497 60.4203 160.669 59.2401C158.88 58.0024 156.932 57.5929 154.825 58.0116C152.669 58.4397 151.002 59.5675 149.822 61.395L114.346 114.367C113.255 113.886 112.178 113.478 111.116 113.142C110.044 112.757 109.01 112.44 108.014 112.189L138.525 66.5514C139.714 64.7718 140.1 62.8284 139.681 60.7212C139.253 58.566 138.145 56.8696 136.356 55.632C134.528 54.4518 132.561 54.071 130.453 54.4896C128.298 54.9178 126.626 56.0216 125.436 57.8012L82.7931 121.68C82.0639 122.771 81.3688 123.407 80.7078 123.588C79.9895 123.731 79.3385 123.586 78.7549 123.155C78.2382 122.809 77.8846 122.282 77.694 121.573C77.4939 120.816 77.4952 119.82 77.6979 118.585L81.1755 95.1191C81.6593 91.2894 81.6871 88.2969 81.259 86.1417C80.7829 83.9961 79.569 82.2709 77.6172 80.966C75.895 79.8147 74.1671 79.3863 72.4335 79.6809C70.6903 79.9276 69.2575 80.8594 68.135 82.4763C67.4826 83.4522 66.8247 84.9022 66.1615 86.8261C65.4983 88.75 64.8444 90.8463 64.1999 93.115C63.5554 95.3836 62.9158 97.5518 62.2811 99.6194C61.1462 103.429 60.0833 107.1 59.0924 110.632C58.0536 114.174 57.1203 117.62 56.2924 120.971C55.4646 124.321 54.7469 127.6 54.1395 130.807C53.5225 133.967 53.0445 137.074 52.7054 140.128C51.2647 150.918 52.3392 160.462 55.9291 168.759C59.5094 177.009 66.1217 184.358 75.766 190.805C81.8415 194.825 88.0624 197.572 94.4285 199.045C100.795 200.519 107.072 200.666 113.259 199.486C119.447 198.307 125.339 195.767 130.937 191.867C136.534 187.968 141.578 182.659 146.068 175.943ZM88.5209 79.8453C89.1409 81.7135 89.6076 83.6867 89.9209 85.7651C90.1864 87.853 90.3271 90.0653 90.3433 92.4018L111.226 61.0722C111.044 60.9092 110.896 60.7893 110.781 60.7125C109.001 59.5228 107.058 59.1373 104.951 59.5559C102.796 59.984 101.099 61.0926 99.8616 62.8818L88.5209 79.8453ZM50.3494 195.929C55.3438 199.268 60.5117 201.726 65.853 203.303C71.1944 204.881 76.4747 205.524 81.694 205.234C77.7891 203.62 73.9709 201.566 70.2395 199.072C59.3992 191.866 51.7351 183.357 47.247 173.546C42.7495 163.686 41.2512 152.26 42.7523 139.267C43.0914 136.213 43.5599 133.058 44.1578 129.803C44.7078 126.558 45.392 123.236 46.2104 119.837C47.0287 116.439 47.9334 112.974 48.9242 109.441C49.8672 105.919 50.8965 102.329 52.0121 98.6725C52.4929 97.0835 52.969 95.4705 53.4403 93.8336C53.9117 92.1967 54.383 90.5599 54.8544 88.923C54.176 87.7634 53.2627 86.7998 52.1146 86.0323C50.3924 84.8809 48.6645 84.4526 46.9308 84.7472C45.1877 84.9939 43.7596 85.9497 42.6467 87.6144C41.9847 88.5425 41.3221 89.9684 40.6589 91.8923C39.9957 93.8163 39.3418 95.9126 38.6973 98.1812C38.0049 100.459 37.3653 102.628 36.7785 104.686C35.6436 108.495 34.5807 112.166 33.5898 115.699C32.551 119.24 31.6177 122.687 30.7898 126.037C29.9141 129.397 29.1964 132.676 28.6369 135.874C28.0199 139.033 27.5371 142.116 27.1885 145.122C25.7573 155.96 26.8366 165.528 30.4264 173.826C34.0068 182.075 40.6478 189.443 50.3494 195.929Z" fill="#101010"/>
</svg>
