<svg width="175" height="125" viewBox="0 0 175 125" fill="none" xmlns="http://www.w3.org/2000/svg">
<path d="M0 122.538V71.7768C0 70.9295 0.702412 70.2379 1.56287 70.2379H7.8916C8.75206 70.2379 9.45447 70.9295 9.45447 71.7768V91.9269C9.45447 92.5424 10.3922 92.7741 10.7048 92.2347L24.609 71.0851C24.9988 70.5457 25.4695 70.2379 26.4845 70.2379H33.045C34.6851 70.2379 35.075 71.8528 34.3725 72.8522L19.218 95.2328C18.5928 96.1561 18.5928 96.616 19.218 97.6154L34.7624 121.459C35.5421 122.614 35.0749 124.073 33.4348 124.073H26.639C25.7013 124.073 25.0761 123.689 24.609 122.998L10.7048 101.54C10.3922 100.925 9.45447 101.156 9.45447 101.848V122.538C9.45447 123.385 8.75206 124.077 7.8916 124.077H1.56287C0.702412 124.077 0 123.385 0 122.538Z" fill="#101010"/>
<path d="M37.6491 122.538V87.1582C37.6491 86.311 38.3516 85.6193 39.212 85.6193H43.5073C45.46 85.6193 45.0701 87.8498 46.7103 87.8498C48.7402 87.8498 49.7552 84.696 56.4738 84.696C63.7367 84.696 69.205 90.0803 69.205 98.7704V122.538C69.205 123.385 68.5026 124.076 67.6421 124.076H61.784C60.9236 124.076 60.2212 123.385 60.2212 122.538V100.157C60.2212 95.6961 57.408 93.3896 53.4253 93.3896C49.4426 93.3896 46.5522 95.6961 46.5522 100.157V122.538C46.5522 123.385 45.8498 124.076 44.9893 124.076H39.2085C38.348 124.076 37.6456 123.385 37.6456 122.538H37.6491Z" fill="#101010"/>
<path d="M75.7301 118.461C73.3876 115.231 72.6044 111.769 72.6044 104.846C72.6044 97.9233 73.3068 94.3857 75.7301 91.2319C78.6205 87.1549 83.5409 84.6927 89.3218 84.6927C95.1026 84.6927 100.181 87.0754 102.991 91.2319C105.333 94.4618 106.116 97.9994 106.116 104.846C106.116 111.693 105.337 115.231 102.991 118.461C100.178 122.614 95.1799 125 89.3218 125C83.4637 125 78.5433 122.617 75.7301 118.461ZM82.7612 112.769C83.9343 114.999 86.2768 116.306 89.3218 116.306C92.3667 116.306 94.7901 114.999 95.8823 112.769C96.8973 111.078 96.9746 108.999 96.9746 104.846C96.9746 100.693 96.8973 98.6184 95.8823 96.9239C94.7901 94.7695 92.444 93.3863 89.3218 93.3863C86.1996 93.3863 83.9308 94.7695 82.7612 96.9239C81.7463 98.6149 81.669 100.693 81.669 104.846C81.669 108.999 81.7463 111.078 82.7612 112.769Z" fill="#101010"/>
<path d="M112.326 119.384C109.359 115.691 108.575 111.002 108.575 104.846C108.575 98.6909 109.355 94.0017 112.326 90.3085C115.139 86.7709 119.512 84.6926 125.293 84.6926C134.199 84.6926 140.76 90.0008 140.76 98.5353C140.76 99.3825 140.293 100.074 139.432 100.074H133.339C132.559 100.074 131.934 99.6142 131.853 98.843C131.699 95.6132 129.275 93.3067 125.135 93.3067C122.244 93.3067 120.056 94.6138 118.806 96.9203C117.714 98.843 117.633 101.229 117.633 104.843C117.633 108.456 117.71 110.843 118.806 112.765C120.056 115.148 122.244 116.379 125.135 116.379C129.353 116.379 131.618 114.148 131.853 110.763C131.931 109.995 132.556 109.608 133.339 109.608H139.432C140.212 109.608 140.76 110.3 140.76 111.147C140.76 119.069 134.979 124.989 125.293 124.989C119.512 124.989 115.139 122.915 112.326 119.374V119.384Z" fill="#101010"/>
<path d="M164.895 122.846L155.054 108.771C154.664 108.156 153.569 108.311 153.569 109.231V122.538C153.569 123.385 152.866 124.077 152.006 124.077H146.225C145.364 124.077 144.662 123.385 144.662 122.538V71.0059C144.662 70.1587 145.364 69.467 146.225 69.467H152.006C152.866 69.467 153.569 70.1587 153.569 71.0059V99.2341C153.569 100.157 154.661 100.31 155.054 99.694L164.895 86.619C165.208 86.2352 165.833 85.6197 167.002 85.6197H173.018C174.581 85.6197 174.894 87.2346 174.269 88.1579L163.409 103C162.861 103.768 162.942 104.231 163.487 105.078L174.658 121.459C175.438 122.69 174.813 124.073 173.485 124.073H167.157C165.984 124.073 165.127 123.226 164.891 122.842L164.895 122.846Z" fill="#101010"/>
<path d="M60.8159 50.6174H40.7594C39.4669 50.6174 38.4119 49.5786 38.4119 48.306V39.7565C38.4119 38.4839 39.4669 37.4451 40.7594 37.4451H60.8159C62.1083 37.4451 63.1634 38.4839 63.1634 39.7565V48.306C63.1634 49.5786 62.1083 50.6174 60.8159 50.6174Z" fill="#101010"/>
<path d="M68.2122 24.8389L58.1839 7.73974C57.5403 6.63858 57.9254 5.22058 59.0438 4.5817L66.561 0.30691C67.6794 -0.326777 69.1195 0.0523958 69.7684 1.15356L79.7966 18.2527C80.4402 19.3539 80.0551 20.7719 78.9367 21.4107L71.4195 25.6855C70.3012 26.3192 68.861 25.94 68.2122 24.8389Z" fill="#101010"/>
<path d="M94.5832 18.2527L104.611 1.15356C105.255 0.0523958 106.7 -0.326777 107.819 0.30691L115.336 4.5817C116.454 5.21538 116.839 6.63858 116.196 7.73974L106.168 24.8389C105.524 25.94 104.079 26.3192 102.96 25.6855L95.4431 21.4107C94.3247 20.7771 93.9396 19.3539 94.5832 18.2527Z" fill="#101010"/>
<path d="M113.563 37.4502H133.619C134.912 37.4502 135.967 38.489 135.967 39.7616V48.3112C135.967 49.5837 134.912 50.6226 133.619 50.6226H113.563C112.27 50.6226 111.215 49.5837 111.215 48.3112V39.7616C111.215 38.489 112.27 37.4502 113.563 37.4502Z" fill="#101010"/>
</svg>
