<svg width="80" height="80" viewBox="0 0 80 80" fill="none" xmlns="http://www.w3.org/2000/svg">
<rect x="1" y="1" width="78" height="78" rx="39" fill="white"/>
<g clip-path="url(#clip0_916_9816)">
<path fill-rule="evenodd" clip-rule="evenodd" d="M62.133 84.2887C63.2899 84.2329 62.8246 82.2085 62.7415 81.4651C61.8256 78.7498 62.041 75.7873 61.6807 72.9412C61.4563 70.2843 61.168 67.6357 60.9254 64.9809C60.4491 59.5918 57.0283 48.6211 53.1245 46.8567C52.6328 44.6982 50.6017 42.6832 48.032 42.6832C46.2793 40.6078 44.1697 39.1471 41.4639 39.442C40.3457 39.4929 39.2613 40.6793 38.1899 40.9084C37.59 40.9912 32.2661 40.7782 31.1997 41.4118C30.4568 41.7934 29.7862 42.4985 30.0046 43.3962C30.3531 44.4838 29.2701 43.3069 27.0108 44.4678C22.4039 47.2357 25.1568 50.9387 25.2788 51.0534C22.4039 55.0549 19.8911 58.3013 18.7284 63.1923C17.9749 66.8236 18.0597 70.5722 17.4284 74.222C17.2055 75.4876 16.8635 76.7098 16.4935 77.9388C16.0924 79.5472 15.8974 83.5559 15.6763 83.5918C15.2737 83.6918 15.909 84.5189 16.3357 84.5196C28.1653 86.4826 40.1813 84.6009 52.0745 84.2935C55.4262 84.1769 58.7815 84.15 62.133 84.2887Z" fill="white"/>
<path fill-rule="evenodd" clip-rule="evenodd" d="M44.2034 51.4066C44.2089 51.3524 44.2819 51.3525 44.2876 51.4066L44.3711 52.2132C44.4727 53.1982 44.5705 54.1814 44.6414 55.1711C44.7299 56.4052 44.789 57.639 44.8175 58.8759C44.9169 63.1837 44.9366 67.4937 44.945 71.8025C45.5275 71.7622 46.11 71.7233 46.6929 71.6857C47.0883 71.6602 47.4838 71.6357 47.8793 71.6115L48.8877 71.5504L49.3029 71.5249C49.5835 71.5075 49.9022 71.4368 50.0984 71.6855C50.1769 71.785 50.2163 71.9143 50.1431 72.0325C49.9742 72.305 49.7149 72.2955 49.4215 72.3073C49.1447 72.3185 48.8679 72.3295 48.5911 72.3401C47.998 72.3632 47.4049 72.3849 46.8116 72.4016C46.1889 72.419 45.5666 72.4332 44.9442 72.4438C44.9379 74.2629 44.8626 76.0796 44.7813 77.8966L44.7445 78.7143C44.6449 80.9255 44.5378 83.1387 44.3857 85.347C44.3732 85.5278 44.1176 85.5274 44.1052 85.347C43.9339 82.8601 43.8208 80.3679 43.7088 77.8777C43.6275 76.0722 43.5802 74.2662 43.5577 72.4599C43.4754 72.4605 43.3931 72.4616 43.3109 72.4619C40.9748 72.4721 38.6392 72.4823 36.3031 72.4604C36.307 72.465 36.3108 72.4696 36.3134 72.4757C36.4825 72.8749 36.4986 73.3844 36.4944 73.8129C36.4897 74.3043 36.4236 74.7897 36.3104 75.2675C35.9051 76.9795 34.8596 78.5128 33.6689 79.7805L33.63 79.8217C33.3491 80.1186 33.0269 80.4169 32.8545 80.7951C32.6783 81.1812 32.6172 81.6328 32.5302 82.0477L32.5201 82.0954L32.1802 83.6659C32.0722 84.1647 32.0416 84.8922 31.6469 85.2521C31.2786 85.5879 30.7908 85.4125 30.6175 84.9802C30.4821 84.6427 30.6169 84.2721 30.6971 83.9349L31.3251 81.2941C31.4283 80.8634 31.541 80.4299 31.7637 80.043C31.9918 79.6468 32.3263 79.3595 32.6675 79.0656C33.3137 78.5091 33.9069 77.8719 34.4086 77.1821C34.9101 76.4925 35.3387 75.7323 35.6392 74.933C35.7897 74.5329 35.913 74.1172 35.9981 73.6981C36.079 73.3004 36.0782 72.8886 36.1647 72.4951C36.1707 72.468 36.1936 72.4493 36.2199 72.4411C36.2136 72.4235 36.2232 72.3998 36.2477 72.3983L38.1583 72.2754C39.8566 72.1658 41.5548 72.0534 43.2516 71.925L43.5514 71.9033C43.5281 69.4934 43.5479 67.0829 43.5914 64.672C43.6313 62.4612 43.6321 60.2498 43.6978 58.0393C43.7305 56.9422 43.801 55.8477 43.8794 54.7528C43.9596 53.6332 44.088 52.5229 44.2034 51.4066ZM26.2641 64.2254C26.2437 64.1026 26.3981 64.0266 26.4693 64.1389C27.2828 65.4217 27.6751 66.8151 27.8404 68.3163C27.9865 69.6412 27.9434 70.9852 27.8707 72.3135C27.7931 73.7304 27.7026 75.1468 27.6111 76.5629L27.4705 78.7344L27.1176 84.1783C27.0924 84.5677 27.004 84.9218 26.6689 85.1028C26.6264 85.1382 26.5822 85.17 26.5306 85.1976C26.3496 85.2944 26.1094 85.2455 26.0047 85.0596L26.0467 85.0872C26.0833 85.1103 26.0422 85.0781 25.9235 84.9909L25.8227 84.8604C25.7495 84.7504 25.7028 84.6422 25.684 84.5113C25.6548 84.308 25.6926 84.085 25.7059 83.8807L25.9372 80.311C26.1171 77.5358 26.3271 74.7615 26.4854 71.9849C26.5592 70.6908 26.6109 69.3955 26.5759 68.0992C26.5411 66.81 26.4754 65.499 26.2641 64.2254ZM33.302 40.3289L33.3471 40.3213C34.963 40.0528 36.7201 40.103 38.1969 40.8823C38.2091 40.8887 38.2036 40.909 38.1899 40.9084L37.7145 40.8894C36.2097 40.8305 34.7096 40.7956 33.23 41.1493L33.0785 41.1858C32.5457 41.3158 31.9892 41.475 31.5612 41.827C31.1522 42.1635 30.9485 42.6827 30.7526 43.1606L30.7264 43.2237C30.5277 43.6957 30.2762 44.1433 29.8406 44.4385C29.2764 44.8207 28.5979 44.7739 27.951 44.8258C26.812 44.9174 25.8808 45.7431 25.4175 46.7537C25.1369 47.3655 25.0173 48.0516 24.9936 48.7207C24.9814 49.0614 24.9797 49.4153 25.025 49.7537C25.0395 49.8619 25.1733 50.2561 25.2414 50.2467C25.3929 50.2257 25.5314 50.3047 25.5787 50.4258C25.9529 50.0642 26.3379 49.7129 26.7353 49.3742C27.7259 48.5303 28.7929 47.7654 29.9166 47.1082C30.7742 46.6065 31.6788 46.1094 32.6155 45.7337C32.5413 45.7321 32.4681 45.7469 32.3973 45.7837C32.3663 45.7999 32.3355 45.761 32.3599 45.7352C32.655 45.4247 33.0084 45.3805 33.3647 45.4633C33.4407 45.4391 33.5168 45.4157 33.5932 45.3935C33.6312 45.3824 33.6501 45.4348 33.6191 45.4551L33.5316 45.511C33.9202 45.6412 34.3018 45.8972 34.6039 46.0993C35.4718 46.6795 36.2356 47.3888 37.01 48.0848L37.1508 48.211C37.8324 48.8198 38.5313 49.4114 39.3057 49.8998C39.7111 50.1555 40.1368 50.392 40.5835 50.5678C40.9665 50.7188 41.5902 50.8138 41.7696 51.2188C41.929 51.4126 41.8624 51.6599 41.6756 51.7903C41.3607 52.1371 40.7306 51.9131 40.3553 51.7687C39.9028 51.5945 39.4645 51.3852 39.0464 51.1398C38.2348 50.6631 37.4864 50.0704 36.7893 49.44C36.0612 48.7815 35.3745 48.082 34.6663 47.4029C34.3595 47.1086 34.0598 46.8075 33.7525 46.5137L33.5981 46.3674C33.4413 46.2203 33.2178 45.9909 32.9789 45.8521C32.5289 46.1207 32.0718 46.3782 31.6258 46.6537C31.0032 47.0383 30.399 47.4506 29.804 47.8765C28.6587 48.6963 27.5733 49.6146 26.5657 50.5988C24.7177 52.4038 23.1433 54.4649 21.7679 56.6474L21.6635 56.8137C20.8819 58.0629 20.1428 59.3524 19.6187 60.7327C19.0421 62.2516 18.7617 63.8489 18.6093 65.4612C18.4581 67.062 18.4071 68.6709 18.2381 70.2702C18.0649 71.9104 17.7234 73.5144 17.3351 75.1154L17.2424 75.495C16.891 76.9289 16.5283 78.3627 16.3477 79.8304C16.2512 80.6144 16.1932 81.4091 16.2063 82.1994C16.2195 82.9944 16.3444 83.7717 16.4451 84.5583C16.4837 84.8596 16.1873 85.1111 15.9221 85.151C15.617 85.1968 15.355 85.0022 15.2602 84.7187C14.9646 83.835 14.9109 82.8581 14.9202 81.9306C14.9295 80.989 15.0496 80.0535 15.2187 79.128C15.5511 77.3077 16.0642 75.5251 16.4934 73.7266C16.8716 72.1414 17.1255 70.5534 17.2623 68.9294C17.4044 67.2446 17.4894 65.5541 17.7486 63.8814C18.0043 62.2301 18.4856 60.6528 19.2114 59.147C19.8722 57.7761 20.696 56.4857 21.5597 55.2349C22.6085 53.7161 23.7603 52.2708 25.0479 50.954C24.9323 50.949 24.8135 50.9116 24.7044 50.8436C24.3708 50.6354 24.2154 50.2281 24.1676 49.8562C24.0558 48.9863 24.0828 48.0781 24.3064 47.2276C24.6672 45.8556 25.6035 44.6365 26.9605 44.1419C27.3098 44.0146 27.6811 43.9682 28.0513 43.959C28.4025 43.9503 28.7862 43.9961 29.1251 43.8847C29.6646 43.7073 29.8958 43.0717 30.0984 42.5899L30.1077 42.5678C30.3674 41.9538 30.6792 41.4275 31.2417 41.0442C31.8419 40.6351 32.5939 40.449 33.302 40.3289ZM48.6558 42.757C49.1413 42.5885 49.7484 42.7415 50.2233 42.8887C50.7523 43.0527 51.2412 43.3549 51.6603 43.7138C52.1025 44.0922 52.4679 44.5596 52.7261 45.0816L52.7508 45.1319C52.9866 45.6162 53.2552 46.281 53.1363 46.813C53.1329 46.8281 53.129 46.8426 53.1245 46.8567C54.088 47.3312 54.9777 47.9254 55.7525 48.6786C56.6547 49.5556 57.4187 50.5536 58.0651 51.6317C60.6327 55.9138 61.0846 61.0565 61.3879 65.9398L61.4635 67.178C61.6282 69.8517 61.8209 72.5191 62.3214 75.1558L62.3579 75.3462C62.893 78.1069 63.6589 80.8888 63.5813 83.7209C63.558 84.5694 62.3045 84.5636 62.2681 83.7209C62.1313 80.5487 61.3913 77.4859 60.8902 74.3634C60.0086 68.8697 60.4503 63.206 59.2011 57.7673C58.7108 55.633 57.9514 53.5627 56.8669 51.6575C56.3313 50.7163 55.7184 49.8069 55.0004 48.9949C54.3827 48.2963 53.7407 47.6239 53.0189 47.0366C52.7882 47.2678 52.3273 47.15 52.2069 46.813C52.1242 46.5814 52.1483 46.3107 52.0952 46.0681C52.0459 45.843 51.978 45.6198 51.8875 45.4079C51.7071 44.9854 51.4423 44.5797 51.1366 44.2378C50.8063 43.8682 50.4267 43.5611 50.002 43.3075C49.5744 43.0523 49.1067 42.976 48.6558 42.7895C48.6405 42.7832 48.6391 42.7628 48.6558 42.757ZM50.5423 72.1172C50.5431 72.0949 50.5693 72.0844 50.5855 72.0993C50.7557 72.256 50.8586 72.4809 50.9839 72.6737C51.1284 72.896 51.2802 73.1137 51.4393 73.3258C51.7581 73.7507 52.113 74.1512 52.4707 74.5436C52.8034 74.9085 53.158 75.2581 53.5258 75.5876C53.9244 75.9446 54.371 76.2631 54.7331 76.6585C55.4886 77.4834 55.6107 78.6157 55.7701 79.6788L55.7876 79.7938C55.8848 80.4247 55.9719 81.0573 56.0504 81.6908C56.0886 81.9989 56.1267 82.3074 56.1578 82.6163L56.1673 82.7142C56.195 83.0167 56.2025 83.3235 56.0289 83.5878C55.843 83.8705 55.4205 83.9696 55.1693 83.6985C54.7376 83.2328 54.8186 82.4055 54.7624 81.8064C54.716 81.311 54.6634 80.8162 54.6045 80.3221L54.5745 80.0752C54.5051 79.5131 54.4487 78.9398 54.3202 78.3875C54.2069 77.9012 53.9909 77.5341 53.6367 77.1817C53.2798 76.8268 52.909 76.4955 52.5796 76.1133C52.2302 75.7079 51.915 75.2732 51.6311 74.8195C51.3882 74.4315 51.1935 74.0092 51.0151 73.5874L50.9855 73.5171C50.8131 73.1058 50.5289 72.5703 50.5423 72.1172ZM56.7744 54.4491C56.7781 54.3917 56.8629 54.3909 56.8641 54.4491C56.8749 54.9425 56.8852 55.436 56.8954 55.9295C56.9778 59.9058 56.927 63.8915 57.3258 67.8542C57.5139 69.7226 57.8602 71.5635 58.261 73.3967C58.466 74.3348 58.6812 75.2706 58.8856 76.2088C59.0848 77.1232 59.2985 78.042 59.4565 78.9648C59.6118 79.8718 59.7508 80.7858 59.8133 81.7045L59.821 81.8243C59.8478 82.2693 59.9761 82.9238 59.7312 83.3183C59.4658 83.7456 58.9576 83.7533 58.6732 83.3453C58.4062 82.9624 58.4726 82.2812 58.4254 81.8243C58.3775 81.3588 58.3268 80.893 58.2692 80.4286C58.1568 79.5228 58.0088 78.619 57.8548 77.7193C57.5342 75.8457 57.069 73.9957 56.7258 72.1251C56.3739 70.2083 56.1238 68.2778 56.1133 66.3262C56.1028 64.3581 56.311 62.3937 56.4162 60.4299C56.5229 58.4353 56.6443 56.4422 56.7744 54.4491ZM37.9977 42.0814C38.1044 41.7219 38.4811 41.4972 38.8485 41.5981C39.1852 41.6907 39.4632 42.0995 39.3315 42.4493C39.1879 42.831 38.9368 43.1564 38.7252 43.5033C38.5297 43.8239 38.2445 44.0763 38.0453 44.3912L38.2648 44.6278C38.3746 44.7459 38.4847 44.8633 38.596 44.9786L38.9788 45.3753C39.2769 45.6835 39.5769 45.9901 39.8853 46.2877C40.7923 47.1629 41.7137 48.0093 42.7294 48.7588C42.9607 48.9294 43.1937 49.0989 43.4333 49.2578L43.5226 49.317C43.6869 49.4246 43.8703 49.5304 44.0688 49.5122C44.5513 49.4679 44.9872 48.9553 45.3187 48.6363L45.3361 48.6197C46.1576 47.8377 46.9184 46.9827 47.5835 46.0634C47.7311 45.8591 47.8741 45.6514 48.0134 45.4412C47.6918 45.0654 47.7686 44.3319 47.7509 43.8762C47.7384 43.5558 47.7374 43.2353 47.7357 42.9146L47.7348 42.85C47.7309 42.6424 47.7215 42.4434 47.8562 42.2726C47.864 42.2627 47.8803 42.263 47.8903 42.2682C48.0747 42.3649 48.1315 42.5267 48.2102 42.7083L48.2184 42.7271C48.3142 42.9451 48.4059 43.165 48.4987 43.3842C48.5958 43.6136 48.6849 43.8465 48.7752 44.0787C48.8172 44.1867 48.8573 44.2952 48.8965 44.4042C48.9204 44.4739 48.9451 44.5431 48.9705 44.6123L48.9765 44.6176C49.01 44.6461 49.0384 44.6761 49.0629 44.7072C49.1658 44.7587 49.2476 44.8525 49.2859 44.9903C49.3694 45.2904 49.1966 45.5351 49.0425 45.7732C48.4164 46.741 47.7026 47.6631 46.9092 48.4996C46.5151 48.9152 46.1006 49.3121 45.669 49.6886L45.5935 49.7539C45.2059 50.0872 44.7849 50.4029 44.2672 50.4809C43.6612 50.5721 43.1681 50.2707 42.7043 49.9234L42.658 49.8886C42.2182 49.5556 41.7874 49.2109 41.3699 48.8503C40.5188 48.1152 39.7091 47.3259 38.9905 46.4599C38.2914 45.6176 37.6005 44.6758 37.1696 43.6623C37.1433 43.6005 37.2124 43.5359 37.2665 43.5875C37.477 43.7879 37.6795 43.9992 37.8796 44.2132C37.8852 43.8982 37.827 43.5805 37.8594 43.2635C37.8988 42.8781 37.8874 42.4524 37.9977 42.0814Z" fill="#101010"/>
<path fill-rule="evenodd" clip-rule="evenodd" d="M52.0617 28.5423C51.9195 26.7012 52.1399 24.7716 51.4304 23.0217C50.1932 20.1183 46.724 19.1502 44.0345 18.0449C42.957 17.7264 39.3314 17.6819 38.0698 17.2603C35.2145 16.3063 34.5323 15.1696 32.2635 16.9861C31.8805 17.2964 31.6409 17.6336 31.4661 18.0944L31.4733 18.0964C31.4234 18.2885 31.4769 18.4802 31.5894 18.6266C30.6057 19.6325 30.194 21.1406 30.6987 22.4796C32.3459 25.9642 32.2684 27.8482 31.7377 31.5943C31.0447 35.0914 32.6284 36.3689 35.2511 38.2717C35.1444 38.4788 35.1222 38.7541 35.2614 38.9369C38.2943 43.2005 44.0128 45.2361 48.9125 43.0721C50.9013 42.1865 51.7892 40.0677 52.2959 38.1558C52.8862 36.0151 53.0676 33.7593 52.587 31.5786C52.3932 30.5701 52.1407 29.5688 52.0617 28.5423Z" fill="white"/>
<path fill-rule="evenodd" clip-rule="evenodd" d="M34.5675 8.14512C34.9356 8.08982 35.2136 8.31832 35.3459 8.64038L35.3528 8.65772C35.3953 8.7673 35.4426 8.87389 35.4935 8.97869C36.4147 8.52658 37.7292 8.64275 38.3123 9.55835C38.7283 10.2123 38.4745 10.9883 38.3177 11.6818L38.2147 12.1387C38.4137 12.2654 38.5638 12.4923 38.5567 12.7272L38.5559 12.7453L38.514 13.3825C38.6469 13.2477 38.7684 13.101 38.8767 12.9447C38.9516 12.8076 39.0324 12.6728 39.1192 12.5423C39.6298 11.774 40.7761 12.4417 40.3547 13.2645C40.2738 13.4232 40.1829 13.5735 40.0853 13.7184C39.9752 13.9322 39.8848 14.1519 39.8153 14.3777C40.0147 14.4645 40.1679 14.6574 40.1841 14.9484C40.2218 15.628 39.865 16.1951 39.2975 16.5514C39.1305 16.6562 38.9581 16.6766 38.8019 16.6377C38.7744 16.6748 38.7468 16.7119 38.7205 16.7497C38.9468 16.9335 39.1509 17.1431 39.3263 17.3754C39.8542 17.2964 40.3852 17.2593 40.9161 17.2581C41.565 16.9401 42.342 16.9467 43.0393 17.0658C43.4883 17.1425 43.9193 17.2916 44.361 17.3988C44.8267 17.5114 45.2996 17.5155 45.7707 17.5922C46.3645 17.6886 46.8853 17.9629 47.2127 18.4006C47.5725 18.4114 47.9508 18.5587 48.2644 18.7587C48.9947 19.2246 49.7208 19.6971 50.4493 20.166C50.7289 20.346 50.8334 20.6333 50.782 20.9539L50.7785 20.9744L50.754 21.1073L50.8116 21.1891C51.0346 21.5041 51.2771 21.834 51.4214 22.1816C51.6884 22.5666 51.9296 22.9703 52.1433 23.3864C52.4312 23.9457 52.6689 24.5386 52.8299 25.147C52.87 25.3009 52.9101 25.456 52.9365 25.6129C52.9742 25.8344 52.9161 26.0063 52.8844 26.2189C52.8449 26.4884 52.8305 26.7614 52.7886 27.0315C52.7605 27.2105 52.6084 27.2986 52.4492 27.3034C52.5091 27.7591 52.5522 28.2178 52.5935 28.6729C52.6515 29.3232 52.691 29.9753 52.7251 30.6274C52.9011 30.8831 53.2609 31.0855 53.5207 31.1556C53.8804 31.252 54.2575 31.1472 54.5975 31.0245C54.8112 30.9472 54.9866 31.2161 54.8825 31.3957C54.555 31.9598 53.8547 31.9574 53.3243 31.7077C53.0999 31.6023 52.9029 31.4496 52.7569 31.2508C52.7659 31.44 52.7754 31.6293 52.785 31.8191L52.7939 31.991C52.9018 33.999 53.1346 36.0761 52.7575 38.0643C52.1044 41.5081 49.2556 44.1303 45.7755 44.334C43.9493 44.4408 42.4286 43.9012 41.6724 43.6002C40.9161 43.2992 41.2101 42.6854 41.735 42.8609C42.6394 43.1631 44.3007 43.6134 45.7875 43.4189C49.2916 42.9607 52.263 41.2086 51.9578 33.6623C51.9145 32.5921 51.7812 31.5215 51.7524 30.4514C51.7249 29.4052 51.7351 28.3585 51.689 27.3129L51.6736 26.9562C51.6556 26.5394 51.6364 26.1206 51.6052 25.7033C51.5675 25.5416 51.5363 25.3775 51.4903 25.2188C51.3652 24.7871 51.2017 24.3673 50.9988 23.9667C50.9539 24.0008 50.9036 24.0254 50.8492 24.035C50.4355 24.1092 50.0477 24.0883 49.6604 23.9158C49.4796 23.8362 49.3204 23.7302 49.1719 23.599C49.1013 23.5373 49.054 23.4775 49.0169 23.4152C48.8295 23.4182 48.6422 23.3619 48.5248 23.2271C48.391 23.0736 48.3688 22.915 48.4212 22.7681L48.4267 22.7535L48.4135 22.7487C48.2555 23.1577 47.9406 23.5176 47.5952 23.7607C47.0493 24.1463 46.3663 24.2577 45.7115 24.2679C44.9884 24.2787 44.2257 24.1673 43.5122 24.0535C43.3237 24.0236 43.1363 23.9895 42.9525 23.9433C42.9454 23.9505 42.9382 23.9589 42.9304 23.9661C42.318 24.5523 41.4567 24.7033 40.6797 24.3685C40.2308 24.1751 39.8542 23.8637 39.5214 23.5068C39.5166 23.6936 39.5071 23.8805 39.4909 24.0655L39.4842 24.139C39.4511 24.4836 39.3873 24.8492 39.1269 25.0979C38.7061 25.5009 38.0956 25.3392 37.6101 25.0769C37.6107 25.0895 37.6107 25.1027 37.6107 25.1158C37.7418 25.5614 37.8735 26.0075 38.0052 26.4536L38.0336 26.5487C38.1293 26.8654 38.2343 27.1826 38.2632 27.5141C38.3183 28.1477 37.8968 28.7735 37.1929 28.5609C36.8237 28.4498 36.5278 28.1392 36.244 27.8904L36.0652 27.7357C36.5279 29.2489 36.8487 30.8161 36.8786 32.3952C36.8804 32.4808 36.8068 32.5455 36.7254 32.5485C36.535 32.5563 36.3303 32.5185 36.1388 32.4425C36.128 32.4419 36.1172 32.4413 36.1059 32.4395C35.779 32.3922 35.4755 32.2742 35.208 32.0999C35.2696 32.2958 35.2972 32.506 35.281 32.7257C35.2768 32.779 35.1936 32.7976 35.1816 32.7389C35.0272 31.979 34.1383 31.4047 33.3721 31.5502C32.5496 31.7065 31.9439 32.4143 31.7954 33.2198C31.6362 34.0851 31.9409 35.0857 32.5053 35.7534C32.7651 36.0612 33.1069 36.3181 33.5128 36.3827C33.6983 36.4121 33.8911 36.4019 34.0712 36.3492C34.1479 36.3265 34.2197 36.2947 34.2927 36.2648C34.3993 36.2217 34.5238 36.2151 34.6243 36.1696C34.8524 36.0672 35.0817 36.2774 34.9661 36.5115C34.8656 36.7157 34.7752 36.8534 34.6082 36.9588C34.7435 37.1241 34.8662 37.354 34.9117 37.4157C35.1439 37.7295 35.3798 38.0259 35.6443 38.3128C35.9137 38.6038 36.2076 38.8697 36.5183 39.1158L36.6489 39.219C36.9481 39.4564 37.2087 39.6764 37.4198 40.017C37.5862 40.2859 37.3707 40.6506 37.0588 40.6464C36.0831 40.6326 35.3738 39.7751 34.8686 39.026C34.7967 38.9188 34.7291 38.8056 34.6662 38.6894C34.6435 38.726 34.6184 38.7601 34.5902 38.7912L34.6459 38.9409C34.8111 39.3817 34.0994 39.6697 33.8929 39.2583C33.7426 38.9601 33.5684 38.6763 33.3745 38.408C33.2602 38.3918 33.1482 38.3223 33.086 38.2325C32.9285 38.0044 32.7519 37.7738 32.6029 37.5307C32.5203 37.4523 32.4353 37.3768 32.3485 37.3031C32.3234 37.3253 32.2976 37.3475 32.2731 37.3708C32.1641 37.6193 32.0295 37.8463 31.8624 38.0601L31.8266 38.1057C31.5067 38.509 31.09 38.9219 30.5743 39.0206C30.4168 39.0505 30.2654 38.8547 30.4049 38.7295C30.7658 38.405 31.1926 38.184 31.5254 37.8217C31.6894 37.6432 31.84 37.4467 31.9694 37.2407L31.9989 37.193C32.0205 37.1576 32.0426 37.1223 32.0654 37.0864C31.9151 36.984 31.7649 36.881 31.6146 36.778C31.201 37.1315 30.6624 37.2932 30.2049 37.586L30.1594 37.6157C29.7458 37.8924 29.31 37.2804 29.6417 36.9444C30.0072 36.5755 30.3124 36.1356 30.6362 35.7255C30.4839 35.4449 30.4119 35.1131 30.3849 34.7777C30.3742 34.6828 30.3659 34.5878 30.3576 34.4929C30.1253 34.4964 29.8919 34.4168 29.6943 34.2797L29.6195 34.2264C29.3795 34.303 29.1275 34.3402 28.8862 34.3336C28.3188 34.3168 28.0865 33.6683 28.4415 33.2581C28.8036 32.8389 29.4375 32.7473 29.9398 32.9509C29.9559 32.9425 29.9727 32.9335 29.9889 32.9245C29.9649 32.8143 29.9702 32.7144 29.9975 32.6266L29.9896 32.5731C29.8791 32.4036 29.8065 32.21 29.779 32.0055C29.7572 31.8435 29.7616 31.683 29.7991 31.523C29.8115 31.4698 29.8375 31.4147 29.8573 31.3591C29.8165 31.256 29.7925 31.1494 29.785 31.0422C29.7736 31.0286 29.7622 31.0147 29.7515 30.9996C29.5023 30.6496 29.5526 30.2278 29.7898 29.9446C29.7908 29.9266 29.7925 29.9085 29.795 29.8906C29.7811 29.8594 29.7683 29.8278 29.7567 29.7959C29.525 29.5621 29.3549 29.2807 29.3866 28.932C29.4052 28.7268 29.4895 28.5421 29.6171 28.4041C29.5944 28.3372 29.5923 28.2596 29.6197 28.1949C29.4161 27.6532 29.4419 27.0008 29.5884 26.3949C29.5561 26.3027 29.5393 26.2027 29.5429 26.0967C29.5597 25.647 29.9487 25.2338 30.4097 25.2392C30.4652 25.2397 30.5171 25.2469 30.567 25.2575L30.5677 25.2468C30.5853 25.1118 30.6225 24.9871 30.6766 24.8752C30.65 24.8655 30.6253 24.8517 30.6037 24.8333C30.3084 24.9909 29.9959 25.1114 29.6682 25.1935C29.4273 25.2539 29.1805 24.9799 29.3302 24.7537C29.3997 24.6487 29.4764 24.5544 29.559 24.4683C29.4416 24.469 29.3223 24.477 29.2017 24.4925C28.985 24.5206 28.7432 24.3727 28.6025 24.1727C28.4277 24.3428 28.2523 24.5122 28.077 24.6817C27.6328 25.1123 26.9618 24.7955 26.8917 24.2278C26.7595 24.1925 26.6361 24.1326 26.5278 24.0469C25.8274 24.3511 25.0738 24.5182 24.3034 24.55C23.7503 24.5727 23.4271 23.9284 23.6857 23.4733C23.8593 23.1679 24.0748 22.8936 24.3232 22.6553C23.9377 22.7732 23.5396 22.8583 23.1332 22.9128C22.9135 22.9421 22.6028 22.7601 22.5148 22.5583C22.1784 21.7822 22.2072 20.9732 22.5945 20.218C22.6094 20.1881 22.6262 20.1594 22.6423 20.1306C22.6824 20.0306 22.7261 19.9318 22.7734 19.8348C22.297 19.3378 22.2556 18.5988 22.5124 17.9802C22.4095 17.8132 22.37 17.612 22.44 17.4299C22.6393 16.9059 22.9267 16.4221 23.2894 16.0065C23.2547 15.9394 23.2242 15.8682 23.1984 15.7915C22.9943 15.1717 23.2308 14.4238 23.7078 13.9921C24.0077 13.7202 24.3525 13.5573 24.7206 13.4531C24.8757 13.1789 25.075 12.9315 25.3073 12.7231C25.3162 12.7034 25.3252 12.6836 25.3354 12.6639C25.697 11.9824 26.3554 11.6171 27.0611 11.5327C27.0887 11.2662 27.2683 11.0117 27.5292 10.9291C27.6011 10.6985 27.7082 10.4781 27.8555 10.2781C28.0871 9.96316 28.472 9.81465 28.8348 10.0212C29.0335 10.1344 29.2239 10.2644 29.4022 10.4081C29.4824 10.3705 29.5732 10.3462 29.6757 10.3384L29.7015 10.3368L30.2917 10.3069C30.539 10.1973 30.7856 10.0823 31.0328 9.97034C31.1812 9.84758 31.3471 9.74519 31.5278 9.66913C31.7325 9.5835 31.9421 9.535 32.1522 9.51883C32.3228 9.46314 32.4946 9.41404 32.6693 9.37571C33.08 9.28589 33.5098 9.23559 33.936 9.23978C33.9447 9.12942 33.949 9.01775 33.9482 8.90475L33.9473 8.84814C33.9378 8.48586 34.2269 8.19662 34.5675 8.14512ZM34.1538 37.1313C34.0952 37.1439 34.0359 37.154 33.9767 37.1612C33.9946 37.2055 34.0126 37.2499 34.0299 37.2942C34.0778 37.3211 34.1263 37.3469 34.1748 37.3708C34.1604 37.2894 34.152 37.2073 34.1538 37.1313ZM31.0785 36.217L31.0387 36.2903C31.0322 36.3023 31.0259 36.3142 31.0196 36.3258C31.104 36.3193 31.189 36.3211 31.2728 36.3306L31.2726 36.3217C31.2618 36.3181 31.251 36.3147 31.2408 36.3097C31.1829 36.2819 31.1292 36.2508 31.0785 36.217ZM32.7406 32.8724C33.2702 32.9033 33.7188 32.9845 34.2005 33.2163L34.2418 33.2365C34.6674 33.4479 35.3714 33.8383 35.3121 34.3982C35.2954 34.5575 35.1798 34.7252 34.9979 34.7126C34.4992 34.6785 34.2143 34.1755 33.8767 33.8617C33.5361 33.5455 33.1177 33.2204 32.7053 33.003C32.647 32.9724 32.6699 32.8755 32.7334 32.8724L32.7406 32.8724ZM30.339 25.4955C30.2121 25.4997 30.2546 25.623 30.3199 25.52C30.3252 25.5117 30.3318 25.5033 30.339 25.4955ZM37.1891 17.2603C35.9872 17.2919 34.7777 18.0019 33.8773 18.7194C33.0941 19.3437 32.4177 20.0862 31.8188 20.8866C31.6648 21.2852 31.5325 21.6921 31.4207 22.102C31.3471 22.3726 31.301 22.6463 31.2393 22.9194L31.2202 23.0031C31.1718 23.0936 31.1358 23.191 31.1096 23.2917C31.2187 23.4012 31.3602 23.4796 31.5161 23.5167C31.5663 23.5287 31.6081 23.5546 31.641 23.589C31.7665 23.3795 31.8762 23.1585 31.94 22.9241L31.9423 22.9132C32.1835 22.5181 32.4454 22.1352 32.7262 21.7654C33.5008 20.7444 34.3538 19.8138 35.3792 19.0396C36.1568 18.4527 37.0259 17.9928 37.9501 17.694C37.7239 17.5114 37.467 17.367 37.1891 17.2603Z" fill="#101010"/>
<path fill-rule="evenodd" clip-rule="evenodd" d="M46.5595 39.5111C46.1572 39.3468 45.7981 39.0729 45.5356 38.723C45.4444 38.6013 45.4207 38.4729 45.4399 38.3554C45.4614 38.2233 45.5395 38.1035 45.6461 38.0232C45.7529 37.9427 45.8866 37.9029 46.0159 37.9232C46.1282 37.9408 46.24 38.0023 46.3285 38.1299L46.347 38.1554C46.503 38.3666 46.7064 38.5399 46.9381 38.6516C47.1614 38.7592 47.4112 38.8095 47.6697 38.7803C48.1619 38.7246 48.5012 38.4583 48.8619 38.0966C48.9066 38.051 48.9513 38.0039 48.9962 37.956C49.0246 37.9127 49.064 37.8848 49.1077 37.8701C49.1563 37.8539 49.2112 37.8548 49.2616 37.8724C49.3101 37.8893 49.3535 37.9214 49.3826 37.9642C49.4102 38.0048 49.4259 38.0549 49.4208 38.1127C49.3878 38.4875 49.1919 38.822 48.9137 39.0846C48.6046 39.3763 48.195 39.5782 47.8094 39.6489C47.3845 39.7269 46.9516 39.671 46.5595 39.5111ZM48.0098 33.7288C48.4618 34.0037 49.1505 34.6446 48.6643 35.3261C48.0919 35.9269 47.2678 35.238 46.8617 34.9264C46.4851 34.685 46.062 35.306 46.4114 35.5879C49.3459 37.7614 50.5368 33.8007 48.2384 33.4057C47.9853 33.3621 47.8913 33.6438 48.0098 33.7288ZM42.7511 31.2005C42.801 30.5804 43.7451 30.4395 43.8391 31.0532C43.9232 31.6029 43.8242 32.1079 43.5766 32.6029C43.3401 33.0757 42.7457 32.8551 42.7007 32.4245C42.6405 31.8474 42.72 31.5863 42.7511 31.2005ZM49.938 30.926C50.0696 30.7535 50.2597 30.6358 50.4874 30.7023C51.1988 30.9103 50.9891 31.9207 50.7393 32.4125C50.6035 32.6796 50.1647 32.7473 49.9664 32.5121C49.6431 32.1287 49.4883 31.3628 49.8993 30.9851C49.9104 30.9656 49.9228 30.9459 49.938 30.926ZM43.5667 28.4869L43.679 28.4672C44.0267 28.4071 44.4589 28.3493 44.7049 28.6289C44.8353 28.7772 44.8802 29.0528 44.7049 29.1947C44.3965 29.4444 44.0555 29.3476 43.6859 29.3688C43.3814 29.3862 43.0887 29.4367 42.7953 29.5206C42.1517 29.7046 41.6273 30.0405 41.0776 30.4094C41.0055 30.4578 40.9318 30.3655 40.9662 30.298C41.2836 29.6763 41.8985 29.1655 42.5144 28.8542C42.8432 28.688 43.2029 28.5502 43.5667 28.4869ZM49.2895 28.2084L49.3755 28.226C50.3115 28.4217 51.5277 28.8127 51.9709 29.7325C51.9878 29.8625 51.97 29.8904 51.9555 29.9086L51.9506 29.9147C51.9387 29.9302 51.9291 29.9517 51.8728 29.9694C51.8571 29.9657 51.8413 29.9617 51.8254 29.9575C51.6222 29.9043 51.4615 29.8309 51.3058 29.7547L51.1371 29.6716C50.9413 29.5755 50.7438 29.483 50.5345 29.4147C50.0878 29.2689 49.6284 29.1663 49.1618 29.1114C49.0607 29.0996 48.9633 29.0654 48.8865 29.0069C48.8136 28.9514 48.7579 28.8745 48.7325 28.7722C48.6996 28.64 48.709 28.5398 48.78 28.4205C48.8333 28.3309 48.9096 28.2687 48.9973 28.2331C49.0866 28.1967 49.1884 28.1881 49.2895 28.2084Z" fill="#101010"/>
<path fill-rule="evenodd" clip-rule="evenodd" d="M42.6771 39.8863C43.1617 38.7505 44.2195 37.9157 45.4373 37.6105C46.3316 37.387 47.2701 37.3941 48.1818 37.4828C48.6594 37.529 49.1717 37.5668 49.6219 37.7443C50.0063 37.8959 50.3195 38.1824 50.555 38.5188C50.8354 38.9174 51.0261 39.3736 51.16 39.8411C51.179 39.9076 51.1969 39.9746 51.2136 40.0419C51.1553 40.3947 51.0317 40.695 50.7051 40.9168C50.3863 41.1334 50.006 41.222 49.6269 41.2534C49.5897 41.2356 49.5538 41.2172 49.5208 41.1984C48.93 40.8601 48.5142 40.0605 47.7685 40.1687C47.1031 40.2653 46.665 41.103 46.2692 41.5942C44.9989 41.7422 43.7296 41.3604 42.696 40.6337C42.6435 40.385 42.6404 40.1342 42.6771 39.8863ZM52.0769 39.0247C51.9753 38.7394 51.8473 38.4631 51.6956 38.2028C51.194 37.342 50.4241 36.6562 49.51 36.2641C47.3478 35.3379 44.5501 35.9908 42.8039 37.5098C42.2075 38.0291 41.6043 38.7921 41.422 39.6129C41.3675 39.6237 41.3161 39.6521 41.2738 39.692C40.0122 38.8974 38.713 38.1329 37.6964 37.0314C36.9581 36.2311 36.4446 35.284 36.1301 34.2433C36.1044 34.1577 35.9663 34.1702 35.9705 34.265C35.9717 34.2871 35.9729 34.3093 35.9741 34.3314C35.961 34.2907 35.8988 34.3117 35.894 34.3512C35.7248 35.6155 35.5132 36.9559 35.7081 38.2268C35.8247 38.9851 36.169 39.5403 36.6293 40.1397C37.1225 40.7823 37.6808 41.38 38.2517 41.9531C38.614 42.3169 38.9924 42.7366 39.436 43.0033C39.9519 43.3132 40.5371 43.5489 41.0877 43.788C41.6478 44.032 42.2163 44.2574 42.7956 44.4528C43.9535 44.8449 45.1503 45.1158 46.368 45.2345C47.343 45.3292 48.4573 45.4324 49.3917 45.0655C50.1078 44.7843 50.6859 44.276 51.1444 43.6645C51.6436 42.9985 52.0382 42.2399 52.2563 41.4399C52.483 40.6089 52.1247 39.1586 52.0769 39.0247Z" fill="#101010"/>
</g>
<rect x="1" y="1" width="78" height="78" rx="39" stroke="#101010" stroke-width="2"/>
<defs>
<clipPath id="clip0_916_9816">
<rect width="68" height="73.6667" fill="white" transform="translate(6 6)"/>
</clipPath>
</defs>
</svg>
