<svg width="187" height="182" viewBox="0 0 187 182" fill="none" xmlns="http://www.w3.org/2000/svg">
<path d="M117.523 137.749L17.9873 179.351C15.2529 180.474 12.665 180.767 10.2236 180.229C7.78223 179.692 5.73145 178.545 4.07129 176.787C2.41113 175.078 1.33691 172.979 0.848633 170.488C0.360352 168.047 0.726562 165.483 1.94727 162.798L45.7461 65.6787C47.4551 61.8701 49.9453 59.4287 53.2168 58.3545C56.4883 57.2314 60.1992 57.1582 64.3496 58.1348C68.5488 59.1113 72.8945 60.7959 77.3867 63.1885C81.9277 65.5811 86.3223 68.3887 90.5703 71.6113C94.8184 74.7852 98.627 78.0566 101.996 81.4258C105.316 84.7949 108.588 88.6279 111.811 92.9248C115.033 97.2217 117.816 101.641 120.16 106.182C122.553 110.723 124.213 115.093 125.141 119.292C126.117 123.491 126.044 127.227 124.921 130.498C123.847 133.721 121.381 136.138 117.523 137.749ZM75.4824 107.866C81.3418 113.774 86.9326 118.486 92.2549 122.002C97.626 125.469 102.289 127.715 106.244 128.74C110.199 129.717 113.007 129.375 114.667 127.715C116.278 126.152 116.571 123.394 115.546 119.438C114.569 115.483 112.323 110.82 108.808 105.449C105.341 100.078 100.653 94.4873 94.7451 88.6768C88.8857 82.8174 83.2705 78.1299 77.8994 74.6143C72.5771 71.0986 67.9385 68.8281 63.9834 67.8027C60.0771 66.7773 57.3184 67.0947 55.707 68.7549C54.0469 70.3662 53.7051 73.1494 54.6816 77.1045C55.707 81.0596 57.9531 85.7227 61.4199 91.0938C64.9355 96.4648 69.623 102.056 75.4824 107.866ZM66.4736 16.3867C64.1787 16.3867 62.25 15.6055 60.6875 14.043C59.1738 12.4805 58.417 10.5762 58.417 8.33008C58.417 6.13281 59.1738 4.25293 60.6875 2.69043C62.25 1.12793 64.1787 0.34668 66.4736 0.34668C68.6709 0.34668 70.5508 1.12793 72.1133 2.69043C73.7246 4.25293 74.5303 6.13281 74.5303 8.33008C74.5303 10.5762 73.7246 12.4805 72.1133 14.043C70.5508 15.6055 68.6709 16.3867 66.4736 16.3867ZM76.1416 30.083C77.8018 38.9209 78.6318 47.7344 78.6318 56.5234C78.6318 65.2637 77.7773 74.1016 76.0684 83.0371C75.8242 84.3555 75.2383 85.5029 74.3105 86.4795C73.4316 87.4561 72.3086 87.9443 70.9414 87.9443C69.623 87.8955 68.4023 87.3828 67.2793 86.4062C66.1562 85.4297 65.7656 84.2334 66.1074 82.8174C67.7676 74.0283 68.5977 65.2393 68.5977 56.4502C68.5977 47.6611 67.7676 38.9697 66.1074 30.376C65.8145 28.9111 66.2051 27.6904 67.2793 26.7139C68.4023 25.6885 69.6475 25.1514 71.0146 25.1025C72.4307 25.1025 73.5781 25.6152 74.457 26.6406C75.3359 27.6172 75.8975 28.7646 76.1416 30.083ZM111.737 29.0576C109.198 29.0576 106.879 28.4473 104.779 27.2266C102.729 25.957 101.068 24.2969 99.7988 22.2461C98.5781 20.1465 97.9678 17.8271 97.9678 15.2881C97.9678 11.4307 99.3105 8.18359 101.996 5.54688C104.682 2.86133 107.929 1.51855 111.737 1.51855C115.595 1.51855 118.842 2.86133 121.479 5.54688C124.164 8.18359 125.507 11.4307 125.507 15.2881C125.507 17.8271 124.896 20.1465 123.676 22.2461C122.455 24.2969 120.795 25.957 118.695 27.2266C116.645 28.4473 114.325 29.0576 111.737 29.0576ZM97.8213 52.1289C96.0635 52.1289 94.5254 51.4941 93.207 50.2246C91.9375 48.9551 91.3027 47.417 91.3027 45.6104C91.3027 43.8525 91.9375 42.3389 93.207 41.0693C94.5254 39.7998 96.0635 39.165 97.8213 39.165C99.6279 39.165 101.142 39.7998 102.362 41.0693C103.632 42.3389 104.267 43.8525 104.267 45.6104C104.267 47.417 103.632 48.9551 102.362 50.2246C101.142 51.4941 99.6279 52.1289 97.8213 52.1289ZM171.503 20.5615C169.696 20.5615 168.158 19.9512 166.889 18.7305C165.668 17.4609 165.058 15.9229 165.058 14.1162C165.058 12.3096 165.668 10.7715 166.889 9.50195C168.158 8.23242 169.696 7.59766 171.503 7.59766C173.261 7.59766 174.75 8.23242 175.971 9.50195C177.24 10.7715 177.875 12.3096 177.875 14.1162C177.875 15.9229 177.24 17.4609 175.971 18.7305C174.75 19.9512 173.261 20.5615 171.503 20.5615ZM150.336 25.3223C151.361 24.3457 152.582 23.8574 153.998 23.8574C155.414 23.8574 156.61 24.3457 157.587 25.3223C158.563 26.2988 159.052 27.4951 159.052 28.9111C159.052 30.3271 158.563 31.5479 157.587 32.5732L143.891 46.1963C142.914 47.2217 141.718 47.7344 140.302 47.7344C138.886 47.6855 137.665 47.1729 136.64 46.1963C135.712 45.2197 135.224 44.0234 135.175 42.6074C135.175 41.1914 135.663 39.9951 136.64 39.0186L150.336 25.3223ZM123.163 52.5684C124.14 51.6895 125.336 51.2256 126.752 51.1768C128.168 51.1279 129.364 51.5918 130.341 52.5684C131.317 53.5938 131.781 54.8145 131.732 56.2305C131.732 57.5977 131.269 58.7695 130.341 59.7461L93.0605 97.0996C92.084 98.0762 90.8877 98.5645 89.4717 98.5645C88.0557 98.5645 86.835 98.0762 85.8096 97.0996C84.833 96.123 84.3447 94.9268 84.3447 93.5107C84.3447 92.0459 84.833 90.8252 85.8096 89.8486L123.163 52.5684ZM178.168 86.2598C175.873 86.2598 173.944 85.4785 172.382 83.916C170.868 82.3535 170.111 80.4248 170.111 78.1299C170.111 75.9326 170.868 74.0527 172.382 72.4902C173.944 70.9277 175.873 70.1465 178.168 70.1465C180.414 70.1465 182.318 70.9277 183.881 72.4902C185.443 74.0527 186.225 75.9326 186.225 78.1299C186.225 80.4248 185.443 82.3535 183.881 83.916C182.318 85.4785 180.414 86.2598 178.168 86.2598ZM146.674 89.2627C143.451 89.2627 140.717 88.1641 138.471 85.9668C136.273 83.7207 135.175 80.9619 135.175 77.6904C135.175 74.4678 136.273 71.7334 138.471 69.4873C140.717 67.1924 143.451 66.0449 146.674 66.0449C149.945 66.0449 152.704 67.1924 154.95 69.4873C157.245 71.7334 158.393 74.4678 158.393 77.6904C158.393 80.9619 157.245 83.7207 154.95 85.9668C152.704 88.1641 149.945 89.2627 146.674 89.2627ZM175.385 123.76C173.139 123.76 171.234 122.979 169.672 121.416C168.109 119.854 167.328 117.949 167.328 115.703C167.328 113.506 168.109 111.626 169.672 110.063C171.234 108.452 173.139 107.646 175.385 107.646C177.631 107.646 179.535 108.452 181.098 110.063C182.66 111.626 183.441 113.506 183.441 115.703C183.441 117.949 182.66 119.854 181.098 121.416C179.535 122.979 177.631 123.76 175.385 123.76ZM153.046 106.768C154.364 107.012 155.512 107.573 156.488 108.452C157.465 109.331 157.953 110.479 157.953 111.895C157.953 113.262 157.44 114.507 156.415 115.63C155.39 116.704 154.169 117.095 152.753 116.802C144.11 115.142 135.395 114.336 126.605 114.385C117.816 114.385 109.052 115.215 100.312 116.875C98.8467 117.168 97.626 116.753 96.6494 115.63C95.6729 114.507 95.1846 113.262 95.1846 111.895C95.1357 110.527 95.5996 109.404 96.5762 108.525C97.5527 107.646 98.7002 107.061 100.019 106.768C109.003 105.107 117.865 104.277 126.605 104.277C135.395 104.277 144.208 105.107 153.046 106.768Z" fill="#101010"/>
</svg>
