<svg width="19" height="24" viewBox="0 0 19 24" fill="none" xmlns="http://www.w3.org/2000/svg">
<path d="M4.00195 23.2969C2.97982 23.2969 2.21159 23.043 1.69727 22.5352C1.18945 22.0339 0.935547 21.2786 0.935547 20.2695V9.19531C0.935547 8.1862 1.18945 7.43099 1.69727 6.92969C2.21159 6.42188 2.97982 6.16797 4.00195 6.16797H14.998C16.0137 6.16797 16.7786 6.42188 17.293 6.92969C17.8073 7.43099 18.0645 8.1862 18.0645 9.19531V20.2695C18.0645 21.2721 17.8203 22.0273 17.332 22.5352C16.8438 23.043 16.1634 23.2969 15.291 23.2969H4.00195ZM4.02148 21.7246H15.2617C15.6003 21.7246 15.89 21.5944 16.1309 21.334C16.3717 21.0736 16.4922 20.6895 16.4922 20.1816V9.27344C16.4922 8.77214 16.3587 8.39128 16.0918 8.13086C15.8249 7.87044 15.4505 7.74023 14.9688 7.74023H4.02148C3.5332 7.74023 3.15885 7.87044 2.89844 8.13086C2.63802 8.39128 2.50781 8.77214 2.50781 9.27344V20.1816C2.50781 20.6895 2.63802 21.0736 2.89844 21.334C3.15885 21.5944 3.5332 21.7246 4.02148 21.7246ZM3.06445 4.5957C3.13607 4.15299 3.28906 3.81445 3.52344 3.58008C3.75781 3.33919 4.11914 3.21875 4.60742 3.21875H14.3828C14.8711 3.21875 15.2324 3.33919 15.4668 3.58008C15.7012 3.81445 15.8542 4.15299 15.9258 4.5957H3.06445ZM4.76367 1.89062C4.78971 1.47396 4.91992 1.16146 5.1543 0.953125C5.39518 0.738281 5.74023 0.630859 6.18945 0.630859H12.8008C13.25 0.630859 13.5918 0.738281 13.8262 0.953125C14.0671 1.16146 14.2038 1.47396 14.2363 1.89062H4.76367Z" fill="#878787"/>
</svg>
